<svg width="1671" height="529" viewBox="0 0 1671 529" fill="none" xmlns="http://www.w3.org/2000/svg">
<g opacity="0.2" clip-path="url(#clip0_52_9)">
<path d="M281.948 24.0675C281.948 24.0675 280.937 23.6662 281.757 22.5856L283.614 19.8477C283.614 19.8477 284.118 18.9563 284.999 19.4014L311.274 30.5553L313.284 38.5623C313.284 38.5623 313.589 39.8223 311.939 40.089L281.948 24.0675Z" fill="#175892"/>
<path d="M288.935 27.7997L284.541 34.3969C284.541 34.3969 284.065 34.9783 284.845 35.6079L288.09 37.3451C288.09 37.3451 288.887 37.8607 289.622 36.8622L294.509 30.7774L288.935 27.7997Z" fill="#175892"/>
<path d="M298.939 25.3337L307.379 14.7523L305.311 6.80511C305.311 6.80511 304.429 5.17885 303.169 6.45692L292.448 22.571L298.939 25.3337Z" fill="#175892"/>
<path d="M311.941 40.0996C312.703 40.5672 313.387 40.1797 313.387 40.1797L320.517 34.1339C321.38 33.1637 321.013 32.3206 321.013 32.3206L315.011 8.4136C314.747 7.36286 313.579 7.26995 313.579 7.26995L305.676 5.64563C303.897 5.08141 303.169 6.45677 303.169 6.45677C303.169 6.45677 304.233 5.19767 305.311 6.80496L313.248 38.4162C313.302 38.6335 313.309 38.8588 313.265 39.0744C313.173 39.495 312.858 39.9452 311.855 40.0418L311.941 40.0996Z" fill="#175892"/>
</g>
<g opacity="0.2" clip-path="url(#clip1_52_9)">
<path d="M290.32 431.664C290.32 431.664 289.246 430.282 291.266 429.454L296.077 427.173C296.077 427.173 297.504 426.348 298.363 427.685L325.694 464.612L321.943 477.359C321.943 477.359 321.337 479.356 318.83 478.378L290.32 431.664Z" fill="#175892"/>
<path d="M296.963 442.547L285.48 448.108C285.48 448.108 284.346 448.526 284.913 450.036L287.995 455.095C287.995 455.095 288.679 456.461 290.514 455.676L302.261 451.229L296.963 442.547Z" fill="#175892"/>
<path d="M312.85 447.296L333.197 439.514L336.821 426.804C336.821 426.804 336.925 423.828 334.134 424.571L306.105 438.164L312.85 447.296Z" fill="#175892"/>
<path d="M318.825 478.395C319.5 479.665 320.764 479.686 320.764 479.686L335.59 477.124C337.58 476.483 337.759 475.014 337.759 475.014L348.959 436.956C349.451 435.283 347.907 434.2 347.907 434.2L338.273 425.494C336.266 423.258 334.134 424.571 334.134 424.571C334.134 424.571 336.638 423.694 336.821 426.804L322.011 477.126C321.909 477.472 321.735 477.791 321.498 478.054C321.027 478.562 320.222 478.929 318.752 478.244L318.825 478.395Z" fill="#175892"/>
</g>
<g opacity="0.2" clip-path="url(#clip2_52_9)">
<path d="M1354.18 456.402C1354.18 456.402 1352.61 455.629 1354.06 454L1357.39 449.845C1357.39 449.845 1358.31 448.479 1359.67 449.306L1400.4 470.561L1402.6 483.664C1402.6 483.664 1402.93 485.725 1400.25 485.942L1354.18 456.402Z" fill="#175892"/>
<path d="M1364.91 463.283L1357.02 473.306C1357.02 473.306 1356.18 474.178 1357.35 475.288L1362.33 478.49C1362.33 478.49 1363.55 479.419 1364.85 477.911L1373.47 468.773L1364.91 463.283Z" fill="#175892"/>
<path d="M1381.28 460.606L1396.17 444.708L1393.87 431.693C1393.87 431.693 1392.66 428.972 1390.48 430.861L1371.22 455.344L1381.28 460.606Z" fill="#175892"/>
<path d="M1400.25 485.959C1401.41 486.807 1402.56 486.272 1402.56 486.272L1414.77 477.484C1416.28 476.038 1415.8 474.638 1415.8 474.638L1409.22 435.515C1408.94 433.795 1407.07 433.497 1407.07 433.497L1394.6 429.88C1391.82 428.747 1390.48 430.861 1390.48 430.861C1390.48 430.861 1392.34 428.977 1393.87 431.694L1402.56 483.425C1402.62 483.781 1402.6 484.143 1402.5 484.484C1402.3 485.147 1401.74 485.829 1400.12 485.855L1400.25 485.959Z" fill="#175892"/>
</g>
<g opacity="0.2" clip-path="url(#clip3_52_9)">
<path d="M1373.37 11.337C1373.37 11.337 1372.94 10.4472 1374.15 10.2173L1377.08 9.49887C1377.08 9.49887 1377.97 9.20359 1378.29 10.044L1389.26 33.6654L1385.73 40.3164C1385.73 40.3164 1385.16 41.3561 1383.88 40.5273L1373.37 11.337Z" fill="#175892"/>
<path d="M1375.82 18.1375L1368.81 19.917C1368.81 19.917 1368.14 20.0197 1368.28 20.923L1369.41 24.084C1369.41 24.084 1369.64 24.9204 1370.75 24.6937L1377.78 23.5624L1375.82 18.1375Z" fill="#175892"/>
<path d="M1384.1 22.5858L1396.29 20.5828L1399.75 13.9374C1399.75 13.9374 1400.15 12.2967 1398.51 12.3915L1381.4 16.7459L1384.1 22.5858Z" fill="#175892"/>
<path d="M1383.88 40.5363C1384.11 41.3189 1384.81 41.4746 1384.81 41.4746L1393.33 41.7413C1394.51 41.6124 1394.78 40.8171 1394.78 40.8171L1405.34 20.9588C1405.8 20.086 1405.07 19.3086 1405.07 19.3086L1400.71 13.3756C1399.85 11.9053 1398.51 12.3916 1398.51 12.3916C1398.51 12.3916 1400 12.1897 1399.75 13.9375L1385.79 40.1953C1385.7 40.3758 1385.56 40.5328 1385.4 40.6516C1385.08 40.8804 1384.59 40.9924 1383.86 40.4443L1383.88 40.5363Z" fill="#175892"/>
</g>
<g opacity="0.2" clip-path="url(#clip4_52_9)">
<path d="M43.2625 73.3792C43.2625 73.3792 42.4884 71.8096 44.6342 71.4041L49.8053 70.1367C49.8053 70.1367 51.369 69.6159 51.9415 71.0983L71.291 112.766L65.054 124.498C65.054 124.498 64.0589 126.332 61.7999 124.87L43.2625 73.3792Z" fill="#175892"/>
<path d="M47.5822 85.3752L35.2165 88.5142C35.2165 88.5142 34.021 88.6953 34.2732 90.2887L36.2753 95.8647C36.2753 95.8647 36.6706 97.34 38.6257 96.9402L51.027 94.9446L47.5822 85.3752Z" fill="#175892"/>
<path d="M62.1908 93.2217L83.6869 89.6885L89.7914 77.9661C89.7914 77.9661 90.4921 75.072 87.6084 75.2392L57.4194 82.9202L62.1908 93.2217Z" fill="#175892"/>
<path d="M61.7916 124.886C62.1972 126.266 63.4318 126.541 63.4318 126.541L78.4697 127.012C80.5477 126.784 81.0188 125.381 81.0188 125.381L99.6412 90.3515C100.46 88.8119 99.1646 87.4407 99.1646 87.4407L91.4778 76.9749C89.9612 74.3814 87.6084 75.2392 87.6084 75.2392C87.6084 75.2392 90.2374 74.883 89.7914 77.9661L65.1677 124.284C64.9985 124.603 64.7641 124.88 64.4784 125.089C63.9153 125.493 63.053 125.69 61.7506 124.724L61.7916 124.886Z" fill="#175892"/>
</g>
<g opacity="0.2" clip-path="url(#clip5_52_9)">
<path d="M24.603 380.346C24.603 380.346 23.6142 378.341 26.355 377.824L32.9597 376.205C32.9597 376.205 34.957 375.54 35.6881 377.433L60.4023 430.653L52.436 445.638C52.436 445.638 51.1651 447.98 48.2798 446.113L24.603 380.346Z" fill="#175892"/>
<path d="M30.1203 395.668L14.3262 399.677C14.3262 399.677 12.7993 399.909 13.1214 401.944L15.6785 409.066C15.6785 409.066 16.1834 410.95 18.6806 410.44L34.5201 407.891L30.1203 395.668Z" fill="#175892"/>
<path d="M48.779 405.69L76.2348 401.177L84.0318 386.205C84.0318 386.205 84.9268 382.508 81.2435 382.722L42.6848 392.532L48.779 405.69Z" fill="#175892"/>
<path d="M48.2692 446.133C48.7872 447.896 50.3641 448.247 50.3641 448.247L69.5712 448.848C72.2253 448.557 72.827 446.766 72.827 446.766L96.6124 402.024C97.6578 400.058 96.0036 398.306 96.0036 398.306L86.1857 384.939C84.2486 381.626 81.2435 382.722 81.2435 382.722C81.2435 382.722 84.6014 382.267 84.0318 386.205L52.5813 445.365C52.3651 445.771 52.0657 446.125 51.7008 446.393C50.9817 446.908 49.8802 447.16 48.2168 445.926L48.2692 446.133Z" fill="#175892"/>
</g>
<g opacity="0.2" clip-path="url(#clip6_52_9)">
<path d="M1100.7 141.696C1100.7 141.696 1100.2 140.681 1101.59 140.419L1104.93 139.6C1104.93 139.6 1105.94 139.264 1106.31 140.222L1118.82 167.15L1114.79 174.731C1114.79 174.731 1114.14 175.917 1112.68 174.972L1100.7 141.696Z" fill="#175892"/>
<path d="M1103.5 149.448L1095.51 151.477C1095.51 151.477 1094.73 151.594 1094.9 152.623L1096.19 156.227C1096.19 156.227 1096.44 157.18 1097.71 156.922L1105.72 155.632L1103.5 149.448Z" fill="#175892"/>
<path d="M1112.94 154.519L1126.83 152.236L1130.77 144.66C1130.77 144.66 1131.23 142.79 1129.36 142.898L1109.85 147.862L1112.94 154.519Z" fill="#175892"/>
<path d="M1112.68 174.982C1112.94 175.874 1113.74 176.052 1113.74 176.052L1123.46 176.356C1124.8 176.209 1125.1 175.302 1125.1 175.302L1137.14 152.664C1137.67 151.669 1136.83 150.783 1136.83 150.783L1131.86 144.019C1130.88 142.343 1129.36 142.898 1129.36 142.898C1129.36 142.898 1131.06 142.667 1130.77 144.66L1114.86 174.593C1114.75 174.799 1114.6 174.978 1114.42 175.113C1114.05 175.374 1113.49 175.502 1112.65 174.877L1112.68 174.982Z" fill="#175892"/>
</g>
<g opacity="0.2" clip-path="url(#clip7_52_9)">
<path d="M652.256 310.238C652.256 310.238 651.776 309.265 653.107 309.013L656.313 308.228C656.313 308.228 657.283 307.905 657.638 308.824L669.635 334.659L665.768 341.934C665.768 341.934 665.151 343.071 663.75 342.164L652.256 310.238Z" fill="#175892"/>
<path d="M654.935 317.676L647.267 319.622C647.267 319.622 646.526 319.734 646.683 320.722L647.924 324.18C647.924 324.18 648.169 325.095 649.381 324.847L657.071 323.609L654.935 317.676Z" fill="#175892"/>
<path d="M663.993 322.541L677.321 320.35L681.106 313.082C681.106 313.082 681.54 311.288 679.752 311.391L661.034 316.154L663.993 322.541Z" fill="#175892"/>
<path d="M663.745 342.174C663.997 343.03 664.762 343.2 664.762 343.2L674.086 343.492C675.375 343.351 675.667 342.481 675.667 342.481L687.213 320.761C687.721 319.807 686.918 318.957 686.918 318.957L682.152 312.467C681.211 310.859 679.752 311.391 679.752 311.391C679.752 311.391 681.382 311.17 681.106 313.082L665.838 341.801C665.733 341.999 665.588 342.17 665.411 342.3C665.062 342.55 664.527 342.673 663.72 342.073L663.745 342.174Z" fill="#175892"/>
</g>
<g opacity="0.2" clip-path="url(#clip8_52_9)">
<path d="M692.05 113.307C692.05 113.307 690.36 112.853 691.471 110.973L693.929 106.251C693.929 106.251 694.569 104.732 696.061 105.279L740.142 118.222L744.845 130.648C744.845 130.648 745.567 132.606 742.979 133.34L692.05 113.307Z" fill="#175892"/>
<path d="M703.916 117.973L698.118 129.338C698.118 129.338 697.466 130.356 698.83 131.217L704.341 133.391C704.341 133.391 705.711 134.067 706.7 132.333L713.38 121.696L703.916 117.973Z" fill="#175892"/>
<path d="M719.45 112.169L730.973 93.6825L726.19 81.362C726.19 81.362 724.477 78.9262 722.7 81.2039L708.56 108.96L719.45 112.169Z" fill="#175892"/>
<path d="M742.985 133.356C744.29 133.962 745.311 133.215 745.311 133.215L755.584 122.223C756.784 120.511 756.04 119.232 756.04 119.232L741.996 82.1288C741.378 80.498 739.494 80.5669 739.494 80.5669L726.557 79.4406C723.607 78.8697 722.7 81.2039 722.7 81.2039C722.7 81.2039 724.167 78.993 726.19 81.3619L744.76 130.422C744.887 130.759 744.941 131.118 744.91 131.471C744.842 132.16 744.421 132.939 742.836 133.28L742.985 133.356Z" fill="#175892"/>
</g>
<g opacity="0.2" clip-path="url(#clip9_52_9)">
<path d="M972.516 465.411C972.516 465.411 969.633 464.48 971.716 461.325L976.376 453.372C976.376 453.372 977.614 450.801 980.146 451.877L1055.25 478.073L1062.3 499.968C1062.3 499.968 1063.38 503.416 1058.84 504.46L972.516 465.411Z" fill="#175892"/>
<path d="M992.629 474.507L981.62 493.656C981.62 493.656 980.404 495.359 982.688 496.967L992.03 501.202C992.03 501.202 994.339 502.49 996.2 499.579L1008.67 481.764L992.629 474.507Z" fill="#175892"/>
<path d="M1019.99 465.816L1041.52 434.848L1034.31 413.13C1034.31 413.13 1031.56 408.77 1028.29 412.554L1001.44 459.324L1019.99 465.816Z" fill="#175892"/>
<path d="M1058.85 504.489C1061.06 505.649 1062.89 504.446 1062.89 504.446L1081.6 486.329C1083.82 483.473 1082.65 481.196 1082.65 481.196L1061.58 415.824C1060.65 412.951 1057.39 412.907 1057.39 412.907L1035.12 409.839C1030.06 408.597 1028.29 412.554 1028.29 412.554C1028.29 412.554 1031.02 408.858 1034.31 413.13L1062.18 499.569C1062.37 500.163 1062.43 500.788 1062.34 501.396C1062.17 502.582 1061.37 503.891 1058.6 504.344L1058.85 504.489Z" fill="#175892"/>
</g>
<g opacity="0.2" clip-path="url(#clip10_52_9)">
<path d="M201.738 256.892C201.738 256.892 200.557 256.511 201.41 255.218L203.318 251.96C203.318 251.96 203.825 250.906 204.863 251.347L235.632 262.071L238.526 271.04C238.526 271.04 238.968 272.452 237.108 272.881L201.738 256.892Z" fill="#175892"/>
<path d="M209.979 260.616L205.471 268.462C205.471 268.462 204.973 269.16 205.909 269.819L209.736 271.553C209.736 271.553 210.683 272.08 211.445 270.887L216.552 263.588L209.979 260.616Z" fill="#175892"/>
<path d="M221.188 257.053L230.004 244.364L227.05 235.467C227.05 235.467 225.922 233.681 224.584 235.232L213.587 254.395L221.188 257.053Z" fill="#175892"/>
<path d="M237.112 272.892C238.015 273.368 238.765 272.875 238.765 272.875L246.43 265.451C247.341 264.28 246.859 263.348 246.859 263.348L238.22 236.568C237.84 235.391 236.502 235.374 236.502 235.374L227.378 234.119C225.309 233.611 224.583 235.232 224.583 235.232C224.583 235.232 225.7 233.718 227.05 235.467L238.473 270.876C238.552 271.12 238.577 271.376 238.543 271.625C238.47 272.111 238.145 272.647 237.009 272.833L237.112 272.892Z" fill="#175892"/>
</g>
<g opacity="0.2" clip-path="url(#clip11_52_9)">
<path d="M1427.63 259.378C1427.63 259.378 1424.86 258.487 1426.86 255.461L1431.33 247.835C1431.33 247.835 1432.51 245.37 1434.94 246.401L1506.95 271.499L1513.72 292.489C1513.72 292.489 1514.76 295.794 1510.4 296.796L1427.63 259.378Z" fill="#175892"/>
<path d="M1446.91 268.094L1436.36 286.456C1436.36 286.456 1435.2 288.09 1437.39 289.631L1446.34 293.689C1446.34 293.689 1448.56 294.923 1450.34 292.131L1462.3 275.049L1446.91 268.094Z" fill="#175892"/>
<path d="M1473.14 259.755L1493.78 230.059L1486.86 209.239C1486.86 209.239 1484.22 205.059 1481.09 208.688L1455.36 253.536L1473.14 259.755Z" fill="#175892"/>
<path d="M1510.41 296.824C1512.53 297.936 1514.28 296.782 1514.28 296.782L1532.22 279.408C1534.35 276.669 1533.22 274.486 1533.22 274.486L1513 211.816C1512.12 209.061 1508.98 209.02 1508.98 209.02L1487.63 206.084C1482.79 204.894 1481.09 208.689 1481.09 208.689C1481.09 208.689 1483.71 205.144 1486.86 209.239L1513.6 292.106C1513.78 292.675 1513.84 293.275 1513.76 293.857C1513.59 294.995 1512.83 296.251 1510.17 296.685L1510.41 296.824Z" fill="#175892"/>
</g>
<g opacity="0.2" clip-path="url(#clip12_52_9)">
<path d="M1618.37 114.671C1618.37 114.671 1617.28 114.321 1618.07 113.133L1619.82 110.14C1619.82 110.14 1620.29 109.172 1621.24 109.577L1649.5 119.428L1652.16 127.667C1652.16 127.667 1652.57 128.964 1650.86 129.358L1618.37 114.671Z" fill="#175892"/>
<path d="M1625.94 118.092L1621.8 125.299C1621.8 125.299 1621.34 125.94 1622.2 126.545L1625.72 128.138C1625.72 128.138 1626.58 128.622 1627.28 127.527L1631.98 120.821L1625.94 118.092Z" fill="#175892"/>
<path d="M1636.23 114.818L1644.33 103.162L1641.62 94.9896C1641.62 94.9896 1640.58 93.3491 1639.35 94.7737L1629.25 112.377L1636.23 114.818Z" fill="#175892"/>
<path d="M1650.86 129.368C1651.69 129.805 1652.38 129.352 1652.38 129.352L1659.42 122.532C1660.26 121.457 1659.82 120.601 1659.82 120.601L1651.88 96.001C1651.53 94.9198 1650.3 94.9035 1650.3 94.9035L1641.92 93.7512C1640.02 93.2841 1639.35 94.7736 1639.35 94.7736C1639.35 94.7736 1640.38 93.3824 1641.62 94.9896L1652.11 127.516C1652.18 127.74 1652.21 127.975 1652.18 128.204C1652.11 128.65 1651.81 129.143 1650.77 129.314L1650.86 129.368Z" fill="#175892"/>
</g>
<g opacity="0.2" clip-path="url(#clip13_52_9)">
<path d="M1618.83 417.755C1618.83 417.755 1617.54 417.34 1618.47 415.934L1620.55 412.389C1620.55 412.389 1621.1 411.243 1622.23 411.722L1655.7 423.389L1658.85 433.146C1658.85 433.146 1659.33 434.683 1657.31 435.148L1618.83 417.755Z" fill="#175892"/>
<path d="M1627.79 421.806L1622.89 430.342C1622.89 430.342 1622.35 431.101 1623.36 431.817L1627.53 433.704C1627.53 433.704 1628.56 434.278 1629.39 432.98L1634.94 425.039L1627.79 421.806Z" fill="#175892"/>
<path d="M1639.99 417.93L1649.58 404.125L1646.36 394.447C1646.36 394.447 1645.14 392.504 1643.68 394.191L1631.72 415.039L1639.99 417.93Z" fill="#175892"/>
<path d="M1657.31 435.161C1658.29 435.678 1659.11 435.142 1659.11 435.142L1667.45 427.065C1668.44 425.792 1667.91 424.778 1667.91 424.778L1658.51 395.645C1658.1 394.364 1656.65 394.345 1656.65 394.345L1646.72 392.981C1644.47 392.427 1643.68 394.191 1643.68 394.191C1643.68 394.191 1644.89 392.544 1646.36 394.447L1658.79 432.968C1658.88 433.233 1658.9 433.512 1658.87 433.782C1658.79 434.311 1658.43 434.895 1657.2 435.097L1657.31 435.161Z" fill="#175892"/>
</g>
<defs>
<clipPath id="clip0_52_9">
<rect width="37.279" height="36.5621" fill="white" transform="translate(277.732 11.6504) rotate(-14.0933)"/>
</clipPath>
<clipPath id="clip1_52_9">
<rect width="60" height="58.8462" fill="white" transform="translate(294.613 411) rotate(16.3987)"/>
</clipPath>
<clipPath id="clip2_52_9">
<rect width="60" height="58.8462" fill="white" transform="translate(1349 435.941) rotate(-9.53722)"/>
</clipPath>
<clipPath id="clip3_52_9">
<rect width="34.0139" height="33.3598" fill="white" transform="translate(1378.11 0.351074) rotate(27.9959)"/>
</clipPath>
<clipPath id="clip4_52_9">
<rect width="60" height="58.8462" fill="white" transform="translate(51.6229 54) rotate(27.9959)"/>
</clipPath>
<clipPath id="clip5_52_9">
<rect width="76.6347" height="75.161" fill="white" transform="translate(35.2812 355.594) rotate(27.9959)"/>
</clipPath>
<clipPath id="clip6_52_9">
<rect width="38.7751" height="38.0294" fill="white" transform="translate(1106.11 129.172) rotate(27.9959)"/>
</clipPath>
<clipPath id="clip7_52_9">
<rect width="37.2022" height="36.4868" fill="white" transform="translate(657.44 298.222) rotate(27.9959)"/>
</clipPath>
<clipPath id="clip8_52_9">
<rect width="60" height="58.8462" fill="white" transform="translate(683 94.2402) rotate(-20.7324)"/>
</clipPath>
<clipPath id="clip9_52_9">
<rect width="103.878" height="101.88" fill="white" transform="translate(958.518 431.658) rotate(-17.8656)"/>
</clipPath>
<clipPath id="clip10_52_9">
<rect width="42.5563" height="41.7379" fill="white" transform="translate(196 243.066) rotate(-17.8801)"/>
</clipPath>
<clipPath id="clip11_52_9">
<rect width="99.5935" height="97.6782" fill="white" transform="translate(1414.2 227.021) rotate(-17.8801)"/>
</clipPath>
<clipPath id="clip12_52_9">
<rect width="39.0924" height="38.3406" fill="white" transform="translate(1613.1 101.97) rotate(-17.8801)"/>
</clipPath>
<clipPath id="clip13_52_9">
<rect width="46.2965" height="45.4062" fill="white" transform="translate(1612.58 402.713) rotate(-17.8801)"/>
</clipPath>
</defs>
</svg>
