<svg width="1037" height="146" viewBox="0 0 1037 146" fill="none" xmlns="http://www.w3.org/2000/svg">
<rect width="1037" height="146" fill="#040A10"/>
<g clip-path="url(#clip0_1241_194)">
<path d="M38.6978 18.8022L32.9923 18.9393C32.3279 18.9542 31.7496 19.3866 31.5458 20.0163L26.8643 32.5027L21.5601 31.5574C21.0663 31.4667 20.5775 31.7446 20.4014 32.2136L19.7472 33.9552C19.5286 34.5284 19.8547 35.1663 20.4438 35.3267L25.3055 36.6578L23.536 41.3777C23.3209 41.9491 23.6469 42.587 24.2395 42.7457L26.0341 43.2359C26.5209 43.3661 27.029 43.1345 27.2448 42.6812L29.5843 37.8253L42.4522 41.3477C43.0784 41.5532 43.7676 41.3379 44.169 40.8081L47.6251 36.259C47.9888 35.7809 48.0446 35.14 47.7705 34.6036L40.1288 19.6501C39.8564 19.1173 39.2983 18.7857 38.6985 18.8001L38.6978 18.8022ZM40.9711 35.0278L31.7283 33.3764L35.8048 24.9183L40.9711 35.0278Z" fill="#1B3347"/>
</g>
<g clip-path="url(#clip1_1241_194)">
<path d="M111.698 89.8022L105.992 89.9393C105.328 89.9542 104.75 90.3866 104.546 91.0163L99.8643 103.503L94.5601 102.557C94.0663 102.467 93.5775 102.745 93.4014 103.214L92.7472 104.955C92.5286 105.528 92.8547 106.166 93.4438 106.327L98.3055 107.658L96.536 112.378C96.3209 112.949 96.6469 113.587 97.2395 113.746L99.0341 114.236C99.5209 114.366 100.029 114.135 100.245 113.681L102.584 108.825L115.452 112.348C116.078 112.553 116.768 112.338 117.169 111.808L120.625 107.259C120.989 106.781 121.045 106.14 120.771 105.604L113.129 90.6501C112.856 90.1173 112.298 89.7857 111.699 89.8001L111.698 89.8022ZM113.971 106.028L104.728 104.376L108.805 95.9183L113.971 106.028Z" fill="#1B3347"/>
</g>
<g clip-path="url(#clip2_1241_194)">
<path d="M165.698 18.8022L159.992 18.9393C159.328 18.9542 158.75 19.3866 158.546 20.0163L153.864 32.5027L148.56 31.5574C148.066 31.4667 147.578 31.7446 147.401 32.2136L146.747 33.9552C146.529 34.5284 146.855 35.1663 147.444 35.3267L152.305 36.6578L150.536 41.3777C150.321 41.9491 150.647 42.587 151.24 42.7457L153.034 43.2359C153.521 43.3661 154.029 43.1345 154.245 42.6812L156.584 37.8253L169.452 41.3477C170.078 41.5532 170.768 41.3379 171.169 40.8081L174.625 36.259C174.989 35.7809 175.045 35.14 174.771 34.6036L167.129 19.6501C166.856 19.1173 166.298 18.7857 165.699 18.8001L165.698 18.8022ZM167.971 35.0278L158.728 33.3764L162.805 24.9183L167.971 35.0278Z" fill="#1B3347"/>
</g>
<g clip-path="url(#clip3_1241_194)">
<path d="M219.698 95.8022L213.992 95.9393C213.328 95.9542 212.75 96.3866 212.546 97.0163L207.864 109.503L202.56 108.557C202.066 108.467 201.578 108.745 201.401 109.214L200.747 110.955C200.529 111.528 200.855 112.166 201.444 112.327L206.305 113.658L204.536 118.378C204.321 118.949 204.647 119.587 205.24 119.746L207.034 120.236C207.521 120.366 208.029 120.135 208.245 119.681L210.584 114.825L223.452 118.348C224.078 118.553 224.768 118.338 225.169 117.808L228.625 113.259C228.989 112.781 229.045 112.14 228.771 111.604L221.129 96.6501C220.856 96.1173 220.298 95.7857 219.699 95.8001L219.698 95.8022ZM221.971 112.028L212.728 110.376L216.805 101.918L221.971 112.028Z" fill="#1B3347"/>
</g>
<g clip-path="url(#clip4_1241_194)">
<path d="M273.698 30.8022L267.992 30.9393C267.328 30.9542 266.75 31.3866 266.546 32.0163L261.864 44.5027L256.56 43.5574C256.066 43.4667 255.578 43.7446 255.401 44.2136L254.747 45.9552C254.529 46.5284 254.855 47.1663 255.444 47.3267L260.305 48.6578L258.536 53.3777C258.321 53.9491 258.647 54.587 259.24 54.7457L261.034 55.2359C261.521 55.3661 262.029 55.1345 262.245 54.6812L264.584 49.8253L277.452 53.3477C278.078 53.5532 278.768 53.3379 279.169 52.8081L282.625 48.259C282.989 47.7809 283.045 47.14 282.771 46.6036L275.129 31.6501C274.856 31.1173 274.298 30.7857 273.699 30.8001L273.698 30.8022ZM275.971 47.0278L266.728 45.3764L270.805 36.9183L275.971 47.0278Z" fill="#1B3347"/>
</g>
<g clip-path="url(#clip5_1241_194)">
<path d="M319.698 95.8022L313.992 95.9393C313.328 95.9542 312.75 96.3866 312.546 97.0163L307.864 109.503L302.56 108.557C302.066 108.467 301.578 108.745 301.401 109.214L300.747 110.955C300.529 111.528 300.855 112.166 301.444 112.327L306.305 113.658L304.536 118.378C304.321 118.949 304.647 119.587 305.24 119.746L307.034 120.236C307.521 120.366 308.029 120.135 308.245 119.681L310.584 114.825L323.452 118.348C324.078 118.553 324.768 118.338 325.169 117.808L328.625 113.259C328.989 112.781 329.045 112.14 328.771 111.604L321.129 96.6501C320.856 96.1173 320.298 95.7857 319.699 95.8001L319.698 95.8022ZM321.971 112.028L312.728 110.376L316.805 101.918L321.971 112.028Z" fill="#1B3347"/>
</g>
<g clip-path="url(#clip6_1241_194)">
<path d="M371.698 24.8022L365.992 24.9393C365.328 24.9542 364.75 25.3866 364.546 26.0163L359.864 38.5027L354.56 37.5574C354.066 37.4667 353.578 37.7446 353.401 38.2136L352.747 39.9552C352.529 40.5284 352.855 41.1663 353.444 41.3267L358.305 42.6578L356.536 47.3777C356.321 47.9491 356.647 48.587 357.24 48.7457L359.034 49.2359C359.521 49.3661 360.029 49.1345 360.245 48.6812L362.584 43.8253L375.452 47.3477C376.078 47.5532 376.768 47.3379 377.169 46.8081L380.625 42.259C380.989 41.7809 381.045 41.14 380.771 40.6036L373.129 25.6501C372.856 25.1173 372.298 24.7857 371.699 24.8001L371.698 24.8022ZM373.971 41.0278L364.728 39.3764L368.805 30.9183L373.971 41.0278Z" fill="#1B3347"/>
</g>
<g clip-path="url(#clip7_1241_194)">
<path d="M440.698 90.8022L434.992 90.9393C434.328 90.9542 433.75 91.3866 433.546 92.0163L428.864 104.503L423.56 103.557C423.066 103.467 422.578 103.745 422.401 104.214L421.747 105.955C421.529 106.528 421.855 107.166 422.444 107.327L427.305 108.658L425.536 113.378C425.321 113.949 425.647 114.587 426.24 114.746L428.034 115.236C428.521 115.366 429.029 115.135 429.245 114.681L431.584 109.825L444.452 113.348C445.078 113.553 445.768 113.338 446.169 112.808L449.625 108.259C449.989 107.781 450.045 107.14 449.771 106.604L442.129 91.6501C441.856 91.1173 441.298 90.7857 440.699 90.8001L440.698 90.8022ZM442.971 107.028L433.728 105.376L437.805 96.9183L442.971 107.028Z" fill="#1B3347"/>
</g>
<g clip-path="url(#clip8_1241_194)">
<path d="M505.698 19.8022L499.992 19.9393C499.328 19.9542 498.75 20.3866 498.546 21.0163L493.864 33.5027L488.56 32.5574C488.066 32.4667 487.578 32.7446 487.401 33.2136L486.747 34.9552C486.529 35.5284 486.855 36.1663 487.444 36.3267L492.305 37.6578L490.536 42.3777C490.321 42.9491 490.647 43.587 491.24 43.7457L493.034 44.2359C493.521 44.3661 494.029 44.1345 494.245 43.6812L496.584 38.8253L509.452 42.3477C510.078 42.5532 510.768 42.3379 511.169 41.8081L514.625 37.259C514.989 36.7809 515.045 36.14 514.771 35.6036L507.129 20.6501C506.856 20.1173 506.298 19.7857 505.699 19.8001L505.698 19.8022ZM507.971 36.0278L498.728 34.3764L502.805 25.9183L507.971 36.0278Z" fill="#1B3347"/>
</g>
<g clip-path="url(#clip9_1241_194)">
<path d="M573.698 95.8022L567.992 95.9393C567.328 95.9542 566.75 96.3866 566.546 97.0163L561.864 109.503L556.56 108.557C556.066 108.467 555.578 108.745 555.401 109.214L554.747 110.955C554.529 111.528 554.855 112.166 555.444 112.327L560.305 113.658L558.536 118.378C558.321 118.949 558.647 119.587 559.24 119.746L561.034 120.236C561.521 120.366 562.029 120.135 562.245 119.681L564.584 114.825L577.452 118.348C578.078 118.553 578.768 118.338 579.169 117.808L582.625 113.259C582.989 112.781 583.045 112.14 582.771 111.604L575.129 96.6501C574.856 96.1173 574.298 95.7857 573.699 95.8001L573.698 95.8022ZM575.971 112.028L566.728 110.376L570.805 101.918L575.971 112.028Z" fill="#1B3347"/>
</g>
<g clip-path="url(#clip10_1241_194)">
<path d="M631.698 13.8022L625.992 13.9393C625.328 13.9542 624.75 14.3866 624.546 15.0163L619.864 27.5027L614.56 26.5574C614.066 26.4667 613.578 26.7446 613.401 27.2136L612.747 28.9552C612.529 29.5284 612.855 30.1663 613.444 30.3267L618.305 31.6578L616.536 36.3777C616.321 36.9491 616.647 37.587 617.24 37.7457L619.034 38.2359C619.521 38.3661 620.029 38.1345 620.245 37.6812L622.584 32.8253L635.452 36.3477C636.078 36.5532 636.768 36.3379 637.169 35.8081L640.625 31.259C640.989 30.7809 641.045 30.14 640.771 29.6036L633.129 14.6501C632.856 14.1173 632.298 13.7857 631.699 13.8001L631.698 13.8022ZM633.971 30.0278L624.728 28.3764L628.805 19.9183L633.971 30.0278Z" fill="#1B3347"/>
</g>
<g clip-path="url(#clip11_1241_194)">
<path d="M680.698 84.8022L674.992 84.9393C674.328 84.9542 673.75 85.3866 673.546 86.0163L668.864 98.5027L663.56 97.5574C663.066 97.4667 662.578 97.7446 662.401 98.2136L661.747 99.9552C661.529 100.528 661.855 101.166 662.444 101.327L667.305 102.658L665.536 107.378C665.321 107.949 665.647 108.587 666.24 108.746L668.034 109.236C668.521 109.366 669.029 109.135 669.245 108.681L671.584 103.825L684.452 107.348C685.078 107.553 685.768 107.338 686.169 106.808L689.625 102.259C689.989 101.781 690.045 101.14 689.771 100.604L682.129 85.6501C681.856 85.1173 681.298 84.7857 680.699 84.8001L680.698 84.8022ZM682.971 101.028L673.728 99.3764L677.805 90.9183L682.971 101.028Z" fill="#1B3347"/>
</g>
<g clip-path="url(#clip12_1241_194)">
<path d="M747.698 14.8022L741.992 14.9393C741.328 14.9542 740.75 15.3866 740.546 16.0163L735.864 28.5027L730.56 27.5574C730.066 27.4667 729.578 27.7446 729.401 28.2136L728.747 29.9552C728.529 30.5284 728.855 31.1663 729.444 31.3267L734.305 32.6578L732.536 37.3777C732.321 37.9491 732.647 38.587 733.24 38.7457L735.034 39.2359C735.521 39.3661 736.029 39.1345 736.245 38.6812L738.584 33.8253L751.452 37.3477C752.078 37.5532 752.768 37.3379 753.169 36.8081L756.625 32.259C756.989 31.7809 757.045 31.14 756.771 30.6036L749.129 15.6501C748.856 15.1173 748.298 14.7857 747.699 14.8001L747.698 14.8022ZM749.971 31.0278L740.728 29.3764L744.805 20.9183L749.971 31.0278Z" fill="#1B3347"/>
</g>
<g clip-path="url(#clip13_1241_194)">
<path d="M770.698 84.8022L764.992 84.9393C764.328 84.9542 763.75 85.3866 763.546 86.0163L758.864 98.5027L753.56 97.5574C753.066 97.4667 752.578 97.7446 752.401 98.2136L751.747 99.9552C751.529 100.528 751.855 101.166 752.444 101.327L757.305 102.658L755.536 107.378C755.321 107.949 755.647 108.587 756.24 108.746L758.034 109.236C758.521 109.366 759.029 109.135 759.245 108.681L761.584 103.825L774.452 107.348C775.078 107.553 775.768 107.338 776.169 106.808L779.625 102.259C779.989 101.781 780.045 101.14 779.771 100.604L772.129 85.6501C771.856 85.1173 771.298 84.7857 770.699 84.8001L770.698 84.8022ZM772.971 101.028L763.728 99.3764L767.805 90.9183L772.971 101.028Z" fill="#1B3347"/>
</g>
<g clip-path="url(#clip14_1241_194)">
<path d="M852.698 19.8022L846.992 19.9393C846.328 19.9542 845.75 20.3866 845.546 21.0163L840.864 33.5027L835.56 32.5574C835.066 32.4667 834.578 32.7446 834.401 33.2136L833.747 34.9552C833.529 35.5284 833.855 36.1663 834.444 36.3267L839.305 37.6578L837.536 42.3777C837.321 42.9491 837.647 43.587 838.24 43.7457L840.034 44.2359C840.521 44.3661 841.029 44.1345 841.245 43.6812L843.584 38.8253L856.452 42.3477C857.078 42.5532 857.768 42.3379 858.169 41.8081L861.625 37.259C861.989 36.7809 862.045 36.14 861.771 35.6036L854.129 20.6501C853.856 20.1173 853.298 19.7857 852.699 19.8001L852.698 19.8022ZM854.971 36.0278L845.728 34.3764L849.805 25.9183L854.971 36.0278Z" fill="#1B3347"/>
</g>
<g clip-path="url(#clip15_1241_194)">
<path d="M922.698 96.8022L916.992 96.9393C916.328 96.9542 915.75 97.3866 915.546 98.0163L910.864 110.503L905.56 109.557C905.066 109.467 904.578 109.745 904.401 110.214L903.747 111.955C903.529 112.528 903.855 113.166 904.444 113.327L909.305 114.658L907.536 119.378C907.321 119.949 907.647 120.587 908.24 120.746L910.034 121.236C910.521 121.366 911.029 121.135 911.245 120.681L913.584 115.825L926.452 119.348C927.078 119.553 927.768 119.338 928.169 118.808L931.625 114.259C931.989 113.781 932.045 113.14 931.771 112.604L924.129 97.6501C923.856 97.1173 923.298 96.7857 922.699 96.8001L922.698 96.8022ZM924.971 113.028L915.728 111.376L919.805 102.918L924.971 113.028Z" fill="#1B3347"/>
</g>
<g clip-path="url(#clip16_1241_194)">
<path d="M970.504 31.073L964.885 32.0737C964.231 32.1892 963.725 32.7043 963.619 33.3576L960.885 46.4095L955.499 46.2793C954.997 46.2646 954.556 46.6133 954.453 47.1037L954.07 48.9243C953.941 49.524 954.36 50.1051 954.967 50.1744L959.974 50.7529L958.941 55.6865C958.815 56.2839 959.234 56.865 959.844 56.932L961.692 57.1444C962.193 57.1993 962.66 56.8934 962.804 56.4126L964.381 51.2581L977.634 52.7886C978.284 52.8968 978.932 52.5794 979.249 51.995L981.975 46.9744C982.262 46.4467 982.22 45.8047 981.868 45.3161L972.047 31.6942C971.697 31.2088 971.095 30.9657 970.505 31.0708L970.504 31.073ZM975.212 46.7664L965.825 46.5356L968.572 37.5571L975.212 46.7664Z" fill="#1B3347"/>
</g>
<g clip-path="url(#clip17_1241_194)">
<path d="M991.908 94.4553L989.981 90.9386C989.758 90.5288 989.301 90.3073 988.842 90.3833L979.539 91.4903L978.418 87.8749C978.315 87.5375 977.984 87.3221 977.634 87.3634L976.336 87.5171C975.908 87.5656 975.615 87.9749 975.705 88.3944L976.443 91.8581L972.926 92.2767C972.5 92.3268 972.207 92.7361 972.299 93.1571L972.572 94.4353C972.648 94.7812 972.957 95.0236 973.309 95.012L977.095 94.9053L979.048 104.073C979.122 104.53 979.479 104.891 979.939 104.97L983.893 105.659C984.309 105.732 984.727 105.56 984.973 105.216L991.84 95.6219C992.085 95.28 992.112 94.8247 991.909 94.455L991.908 94.4553ZM982.515 101.109L980.563 94.8079L987.157 94.6231L982.515 101.109Z" fill="#1B3347"/>
</g>
<g clip-path="url(#clip18_1241_194)">
<path d="M912.898 57.3994L910.972 53.8827C910.748 53.4728 910.291 53.2514 909.833 53.3274L900.529 54.4344L899.408 50.819C899.305 50.4816 898.974 50.2661 898.624 50.3075L897.326 50.4612C896.898 50.5097 896.605 50.919 896.695 51.3385L897.433 54.8022L893.916 55.2208C893.49 55.2709 893.197 55.6802 893.29 56.1012L893.563 57.3794C893.638 57.7253 893.947 57.9677 894.299 57.9561L898.085 57.8494L900.038 67.017C900.112 67.4741 900.469 67.8348 900.929 67.9143L904.883 68.6035C905.299 68.6763 905.717 68.5043 905.964 68.1602L912.831 58.566C913.075 58.2241 913.102 57.7688 912.9 57.3991L912.898 57.3994ZM903.505 64.0535L901.553 57.752L908.147 57.5672L903.505 64.0535Z" fill="#1B3347"/>
</g>
<g clip-path="url(#clip19_1241_194)">
<path d="M852.898 105.399L850.972 101.883C850.748 101.473 850.291 101.251 849.833 101.327L840.529 102.434L839.408 98.819C839.305 98.4816 838.974 98.2661 838.624 98.3075L837.326 98.4612C836.898 98.5097 836.605 98.919 836.695 99.3385L837.433 102.802L833.916 103.221C833.49 103.271 833.197 103.68 833.29 104.101L833.563 105.379C833.638 105.725 833.947 105.968 834.299 105.956L838.085 105.849L840.038 115.017C840.112 115.474 840.469 115.835 840.929 115.914L844.883 116.604C845.299 116.676 845.717 116.504 845.964 116.16L852.831 106.566C853.075 106.224 853.102 105.769 852.9 105.399L852.898 105.399ZM843.505 112.053L841.553 105.752L848.147 105.567L843.505 112.053Z" fill="#1B3347"/>
</g>
<g clip-path="url(#clip20_1241_194)">
<path d="M697.898 50.3994L695.972 46.8827C695.748 46.4728 695.291 46.2514 694.833 46.3274L685.529 47.4344L684.408 43.819C684.305 43.4816 683.974 43.2661 683.624 43.3075L682.326 43.4612C681.898 43.5097 681.605 43.919 681.695 44.3385L682.433 47.8022L678.916 48.2208C678.49 48.2709 678.197 48.6802 678.29 49.1012L678.563 50.3794C678.638 50.7253 678.947 50.9677 679.299 50.9561L683.085 50.8494L685.038 60.017C685.112 60.4741 685.469 60.8348 685.929 60.9143L689.883 61.6035C690.299 61.6763 690.717 61.5043 690.964 61.1602L697.831 51.566C698.075 51.2241 698.102 50.7688 697.9 50.3991L697.898 50.3994ZM688.505 57.0535L686.553 50.752L693.147 50.5672L688.505 57.0535Z" fill="#1B3347"/>
</g>
<g clip-path="url(#clip21_1241_194)">
<path d="M570.898 63.3994L568.972 59.8827C568.748 59.4728 568.291 59.2514 567.833 59.3274L558.529 60.4344L557.408 56.819C557.305 56.4816 556.974 56.2661 556.624 56.3075L555.326 56.4612C554.898 56.5097 554.605 56.919 554.695 57.3385L555.433 60.8022L551.916 61.2208C551.49 61.2709 551.197 61.6802 551.29 62.1012L551.563 63.3794C551.638 63.7253 551.947 63.9677 552.299 63.9561L556.085 63.8494L558.038 73.017C558.112 73.4741 558.469 73.8348 558.929 73.9143L562.883 74.6035C563.299 74.6763 563.717 74.5043 563.964 74.1602L570.831 64.566C571.075 64.2241 571.102 63.7688 570.9 63.3991L570.898 63.3994ZM561.505 70.0535L559.553 63.752L566.147 63.5672L561.505 70.0535Z" fill="#1B3347"/>
</g>
<g clip-path="url(#clip22_1241_194)">
<path d="M514.898 107.399L512.972 103.883C512.748 103.473 512.291 103.251 511.833 103.327L502.529 104.434L501.408 100.819C501.305 100.482 500.974 100.266 500.624 100.308L499.326 100.461C498.898 100.51 498.605 100.919 498.695 101.338L499.433 104.802L495.916 105.221C495.49 105.271 495.197 105.68 495.29 106.101L495.563 107.379C495.638 107.725 495.947 107.968 496.299 107.956L500.085 107.849L502.038 117.017C502.112 117.474 502.469 117.835 502.929 117.914L506.883 118.604C507.299 118.676 507.717 118.504 507.964 118.16L514.831 108.566C515.075 108.224 515.102 107.769 514.9 107.399L514.898 107.399ZM505.505 114.053L503.553 107.752L510.147 107.567L505.505 114.053Z" fill="#1B3347"/>
</g>
<g clip-path="url(#clip23_1241_194)">
<path d="M336.898 62.3994L334.972 58.8827C334.748 58.4728 334.291 58.2514 333.833 58.3274L324.529 59.4344L323.408 55.819C323.305 55.4816 322.974 55.2661 322.624 55.3075L321.326 55.4612C320.898 55.5097 320.605 55.919 320.695 56.3385L321.433 59.8022L317.916 60.2208C317.49 60.2709 317.197 60.6802 317.29 61.1012L317.563 62.3794C317.638 62.7253 317.947 62.9677 318.299 62.9561L322.085 62.8494L324.038 72.017C324.112 72.4741 324.469 72.8348 324.929 72.9143L328.883 73.6035C329.299 73.6763 329.717 73.5043 329.964 73.1602L336.831 63.566C337.075 63.2241 337.102 62.7688 336.9 62.3991L336.898 62.3994ZM327.505 69.0535L325.553 62.752L332.147 62.5672L327.505 69.0535Z" fill="#1B3347"/>
</g>
<g clip-path="url(#clip24_1241_194)">
<path d="M168.898 90.3994L166.972 86.8827C166.748 86.4728 166.291 86.2514 165.833 86.3274L156.529 87.4344L155.408 83.819C155.305 83.4816 154.974 83.2661 154.624 83.3075L153.326 83.4612C152.898 83.5097 152.605 83.919 152.695 84.3385L153.433 87.8022L149.916 88.2208C149.49 88.2709 149.197 88.6802 149.29 89.1012L149.563 90.3794C149.638 90.7253 149.947 90.9677 150.299 90.9561L154.085 90.8494L156.038 100.017C156.112 100.474 156.469 100.835 156.929 100.914L160.883 101.604C161.299 101.676 161.717 101.504 161.964 101.16L168.831 91.566C169.075 91.2241 169.102 90.7688 168.9 90.3991L168.898 90.3994ZM159.505 97.0535L157.553 90.752L164.147 90.5672L159.505 97.0535Z" fill="#1B3347"/>
</g>
<g clip-path="url(#clip25_1241_194)">
<path d="M109.898 47.3994L107.972 43.8827C107.748 43.4728 107.291 43.2514 106.833 43.3274L97.5292 44.4344L96.4078 40.819C96.3051 40.4816 95.9739 40.2661 95.6244 40.3075L94.3264 40.4612C93.8981 40.5097 93.6051 40.919 93.6951 41.3385L94.433 44.8022L90.9163 45.2208C90.4903 45.2709 90.1973 45.6802 90.2895 46.1012L90.5627 47.3794C90.6385 47.7253 90.9469 47.9677 91.2995 47.9561L95.085 47.8494L97.0385 57.017C97.1123 57.4741 97.469 57.8348 97.9292 57.9143L101.883 58.6035C102.299 58.6763 102.717 58.5043 102.964 58.1602L109.831 48.566C110.075 48.2241 110.102 47.7688 109.9 47.3991L109.898 47.3994ZM100.505 54.0535L98.5533 47.752L105.147 47.5672L100.505 54.0535Z" fill="#1B3347"/>
</g>
<g clip-path="url(#clip26_1241_194)">
<path d="M44.0614 116.318L42.7355 112.534C42.5818 112.093 42.1677 111.8 41.7027 111.8L32.3434 111.371L31.828 107.621C31.7818 107.271 31.4903 107.005 31.1387 106.988L29.833 106.928C29.4026 106.906 29.0467 107.262 29.0668 107.69L29.2287 111.228L25.6909 111.066C25.2624 111.046 24.9065 111.402 24.9286 111.832L24.9892 113.138C25.0074 113.491 25.2721 113.781 25.6218 113.827L29.3738 114.341L29.8027 123.704C29.8008 124.167 30.0938 124.581 30.5347 124.735L34.3232 126.061C34.7215 126.201 35.162 126.1 35.4612 125.8L43.804 117.458C44.1013 117.16 44.2023 116.716 44.0629 116.318L44.0614 116.318ZM33.7069 121.347L32.8115 114.811L39.3472 115.707L33.7069 121.347Z" fill="#1B3347"/>
</g>
<g clip-path="url(#clip27_1241_194)">
<path d="M62.6994 79.8673L60.6332 79.394C60.3927 79.3385 60.145 79.4412 60.0139 79.6492L57.1852 83.7145L55.3627 82.8885C55.1932 82.8106 54.9919 82.8658 54.8855 83.0185L54.4905 83.5854C54.3593 83.7717 54.4182 84.0312 54.6156 84.1429L56.2435 85.0673L55.1743 86.604C55.0446 86.79 55.1035 87.0495 55.3022 87.1609L55.9033 87.5017C56.0665 87.5931 56.2706 87.5563 56.3898 87.4129L57.6767 85.8795L61.9856 88.3259C62.1921 88.4573 62.4599 88.4429 62.6529 88.289L64.3135 86.9682C64.4882 86.8294 64.567 86.6039 64.5175 86.3857L63.1367 80.3035C63.0875 80.0868 62.917 79.9163 62.6998 79.8666L62.6994 79.8673ZM62.0313 85.9156L58.8558 84.4746L61.0978 81.8036L62.0313 85.9156Z" fill="#1B3347"/>
</g>
<g clip-path="url(#clip28_1241_194)">
<path d="M122.955 12.0487L120.889 11.5754C120.648 11.5199 120.401 11.6226 120.27 11.8306L117.441 15.8959L115.618 15.0698C115.449 14.992 115.247 15.0472 115.141 15.1999L114.746 15.7668C114.615 15.9531 114.674 16.2126 114.871 16.3243L116.499 17.2487L115.43 18.7854C115.3 18.9714 115.359 19.2309 115.558 19.3423L116.159 19.6831C116.322 19.7745 116.526 19.7377 116.645 19.5943L117.932 18.0608L122.241 20.5073C122.448 20.6387 122.716 20.6243 122.908 20.4704L124.569 19.1496C124.744 19.0108 124.823 18.7853 124.773 18.5671L123.392 12.4849C123.343 12.2682 123.173 12.0977 122.955 12.048L122.955 12.0487ZM122.287 18.097L119.111 16.656L121.353 13.985L122.287 18.097Z" fill="#1B3347"/>
</g>
<g clip-path="url(#clip29_1241_194)">
<path d="M169.955 122.049L167.889 121.575C167.648 121.52 167.401 121.623 167.27 121.831L164.441 125.896L162.618 125.07C162.449 124.992 162.247 125.047 162.141 125.2L161.746 125.767C161.615 125.953 161.674 126.213 161.871 126.324L163.499 127.249L162.43 128.785C162.3 128.971 162.359 129.231 162.558 129.342L163.159 129.683C163.322 129.775 163.526 129.738 163.645 129.594L164.932 128.061L169.241 130.507C169.448 130.639 169.716 130.624 169.908 130.47L171.569 129.15C171.744 129.011 171.823 128.785 171.773 128.567L170.392 122.485C170.343 122.268 170.173 122.098 169.955 122.048L169.955 122.049ZM169.287 128.097L166.111 126.656L168.353 123.985L169.287 128.097Z" fill="#1B3347"/>
</g>
<g clip-path="url(#clip30_1241_194)">
<path d="M220.955 57.0487L218.889 56.5754C218.648 56.5199 218.401 56.6226 218.27 56.8306L215.441 60.8959L213.618 60.0698C213.449 59.992 213.247 60.0472 213.141 60.1999L212.746 60.7668C212.615 60.9531 212.674 61.2126 212.871 61.3243L214.499 62.2487L213.43 63.7854C213.3 63.9714 213.359 64.2309 213.558 64.3423L214.159 64.6831C214.322 64.7745 214.526 64.7377 214.645 64.5943L215.932 63.0608L220.241 65.5073C220.448 65.6387 220.716 65.6243 220.908 65.4704L222.569 64.1496C222.744 64.0108 222.823 63.7853 222.773 63.5671L221.392 57.4849C221.343 57.2682 221.173 57.0977 220.955 57.048L220.955 57.0487ZM220.287 63.097L217.111 61.656L219.353 58.985L220.287 63.097Z" fill="#1B3347"/>
</g>
<g clip-path="url(#clip31_1241_194)">
<path d="M328.955 15.0487L326.889 14.5754C326.648 14.5199 326.401 14.6226 326.27 14.8306L323.441 18.8959L321.618 18.0698C321.449 17.992 321.247 18.0472 321.141 18.1999L320.746 18.7668C320.615 18.9531 320.674 19.2126 320.871 19.3243L322.499 20.2487L321.43 21.7854C321.3 21.9714 321.359 22.2309 321.558 22.3423L322.159 22.6831C322.322 22.7745 322.526 22.7377 322.645 22.5943L323.932 21.0608L328.241 23.5073C328.448 23.6387 328.716 23.6243 328.908 23.4704L330.569 22.1496C330.744 22.0108 330.823 21.7853 330.773 21.5671L329.392 15.4849C329.343 15.2682 329.173 15.0977 328.955 15.048L328.955 15.0487ZM328.287 21.097L325.111 19.656L327.353 16.985L328.287 21.097Z" fill="#1B3347"/>
</g>
<g clip-path="url(#clip32_1241_194)">
<path d="M389.955 110.049L387.889 109.575C387.648 109.52 387.401 109.623 387.27 109.831L384.441 113.896L382.618 113.07C382.449 112.992 382.247 113.047 382.141 113.2L381.746 113.767C381.615 113.953 381.674 114.213 381.871 114.324L383.499 115.249L382.43 116.785C382.3 116.971 382.359 117.231 382.558 117.342L383.159 117.683C383.322 117.775 383.526 117.738 383.645 117.594L384.932 116.061L389.241 118.507C389.448 118.639 389.716 118.624 389.908 118.47L391.569 117.15C391.744 117.011 391.823 116.785 391.773 116.567L390.392 110.485C390.343 110.268 390.173 110.098 389.955 110.048L389.955 110.049ZM389.287 116.097L386.111 114.656L388.353 111.985L389.287 116.097Z" fill="#1B3347"/>
</g>
<g clip-path="url(#clip33_1241_194)">
<path d="M395.531 73.4788L395.058 72.4457C395.003 72.3253 394.878 72.2535 394.747 72.2657L392.095 72.3906L391.851 71.3459C391.829 71.2484 391.739 71.1808 391.64 71.1854L391.27 71.2026C391.148 71.2077 391.056 71.3175 391.073 71.4379L391.212 72.4319L390.209 72.4791C390.088 72.4847 389.997 72.5945 390.014 72.7154L390.066 73.0822C390.08 73.1815 390.163 73.2562 390.262 73.2601L391.335 73.3065L391.702 75.9375C391.713 76.0682 391.807 76.1774 391.935 76.2092L393.039 76.4839C393.155 76.5129 393.277 76.4727 393.353 76.3804L395.488 73.8072C395.565 73.7155 395.581 73.5873 395.532 73.4787L395.531 73.4788ZM392.741 75.1698L392.317 73.3491L394.185 73.4301L392.741 75.1698Z" fill="#1B3347"/>
</g>
<g clip-path="url(#clip34_1241_194)">
<path d="M355.531 122.479L355.058 121.446C355.003 121.325 354.878 121.254 354.747 121.266L352.095 121.391L351.851 120.346C351.829 120.248 351.739 120.181 351.64 120.185L351.27 120.203C351.148 120.208 351.056 120.317 351.073 120.438L351.212 121.432L350.209 121.479C350.088 121.485 349.997 121.594 350.014 121.715L350.066 122.082C350.08 122.181 350.163 122.256 350.262 122.26L351.335 122.306L351.702 124.937C351.713 125.068 351.807 125.177 351.935 125.209L353.039 125.484C353.155 125.513 353.277 125.473 353.353 125.38L355.488 122.807C355.565 122.715 355.581 122.587 355.532 122.479L355.531 122.479ZM352.741 124.17L352.317 122.349L354.185 122.43L352.741 124.17Z" fill="#1B3347"/>
</g>
<g clip-path="url(#clip35_1241_194)">
<path d="M284.531 84.4788L284.058 83.4457C284.003 83.3253 283.878 83.2535 283.747 83.2657L281.095 83.3906L280.851 82.3459C280.829 82.2484 280.739 82.1808 280.64 82.1854L280.27 82.2026C280.148 82.2077 280.056 82.3175 280.073 82.4379L280.212 83.4319L279.209 83.4791C279.088 83.4847 278.997 83.5945 279.014 83.7154L279.066 84.0822C279.08 84.1815 279.163 84.2562 279.262 84.2601L280.335 84.3065L280.702 86.9375C280.713 87.0682 280.807 87.1774 280.935 87.2092L282.039 87.4839C282.155 87.5129 282.277 87.4727 282.353 87.3804L284.488 84.8072C284.565 84.7155 284.581 84.5873 284.532 84.4787L284.531 84.4788ZM281.741 86.1698L281.317 84.3491L283.185 84.4301L281.741 86.1698Z" fill="#1B3347"/>
</g>
<g clip-path="url(#clip36_1241_194)">
<path d="M225.531 24.4788L225.058 23.4457C225.003 23.3253 224.878 23.2535 224.747 23.2657L222.095 23.3906L221.851 22.3459C221.829 22.2484 221.739 22.1808 221.64 22.1854L221.27 22.2026C221.148 22.2077 221.056 22.3175 221.073 22.4379L221.212 23.4319L220.209 23.4791C220.088 23.4847 219.997 23.5945 220.014 23.7154L220.066 24.0822C220.08 24.1815 220.163 24.2562 220.262 24.2601L221.335 24.3065L221.702 26.9375C221.713 27.0682 221.807 27.1774 221.935 27.2092L223.039 27.4839C223.155 27.5129 223.277 27.4727 223.353 27.3804L225.488 24.8072C225.565 24.7155 225.581 24.5873 225.532 24.4787L225.531 24.4788ZM222.741 26.1698L222.317 24.3491L224.185 24.4301L222.741 26.1698Z" fill="#1B3347"/>
</g>
<g clip-path="url(#clip37_1241_194)">
<path d="M135.531 126.479L135.058 125.446C135.003 125.325 134.878 125.254 134.747 125.266L132.095 125.391L131.851 124.346C131.829 124.248 131.739 124.181 131.64 124.185L131.27 124.203C131.148 124.208 131.056 124.317 131.073 124.438L131.212 125.432L130.209 125.479C130.088 125.485 129.997 125.594 130.014 125.715L130.066 126.082C130.08 126.181 130.163 126.256 130.262 126.26L131.335 126.306L131.702 128.937C131.713 129.068 131.807 129.177 131.935 129.209L133.039 129.484C133.155 129.513 133.277 129.473 133.353 129.38L135.488 126.807C135.565 126.715 135.581 126.587 135.532 126.479L135.531 126.479ZM132.741 128.17L132.317 126.349L134.185 126.43L132.741 128.17Z" fill="#1B3347"/>
</g>
<g clip-path="url(#clip38_1241_194)">
<path d="M131.531 67.4788L131.058 66.4457C131.003 66.3253 130.878 66.2535 130.747 66.2657L128.095 66.3906L127.851 65.3459C127.829 65.2484 127.739 65.1808 127.64 65.1854L127.27 65.2026C127.148 65.2077 127.056 65.3175 127.073 65.4379L127.212 66.4319L126.209 66.4791C126.088 66.4847 125.997 66.5945 126.014 66.7154L126.066 67.0822C126.08 67.1815 126.163 67.2562 126.262 67.2601L127.335 67.3065L127.702 69.9375C127.713 70.0682 127.807 70.1774 127.935 70.2092L129.039 70.4839C129.155 70.5129 129.277 70.4727 129.353 70.3804L131.488 67.8072C131.565 67.7155 131.581 67.5873 131.532 67.4787L131.531 67.4788ZM128.741 69.1698L128.317 67.3491L130.185 67.4301L128.741 69.1698Z" fill="#1B3347"/>
</g>
<g clip-path="url(#clip39_1241_194)">
<path d="M76.5312 23.4788L76.0577 22.4457C76.0027 22.3253 75.8782 22.2535 75.7469 22.2657L73.0946 22.3906L72.8507 21.3459C72.8285 21.2484 72.7393 21.1808 72.6396 21.1854L72.2696 21.2026C72.1475 21.2077 72.0565 21.3175 72.0734 21.4379L72.212 22.4319L71.2094 22.4791C71.088 22.4847 70.9969 22.5945 71.0144 22.7154L71.0658 23.0822C71.0802 23.1815 71.1625 23.2562 71.2624 23.2601L72.3347 23.3065L72.7015 25.9375C72.7131 26.0682 72.8067 26.1774 72.9352 26.2092L74.039 26.4839C74.1551 26.5129 74.2767 26.4727 74.3533 26.3804L76.4885 23.8072C76.5646 23.7155 76.5814 23.5873 76.5316 23.4787L76.5312 23.4788ZM73.7413 25.1698L73.3171 23.3491L75.1848 23.4301L73.7413 25.1698Z" fill="#1B3347"/>
</g>
<g clip-path="url(#clip40_1241_194)">
<path d="M20.5312 80.4788L20.0577 79.4457C20.0027 79.3253 19.8782 79.2535 19.7469 79.2657L17.0946 79.3906L16.8507 78.3459C16.8285 78.2484 16.7393 78.1808 16.6396 78.1854L16.2696 78.2026C16.1475 78.2077 16.0565 78.3175 16.0734 78.4379L16.212 79.4319L15.2094 79.4791C15.088 79.4847 14.9969 79.5945 15.0144 79.7154L15.0658 80.0822C15.0802 80.1815 15.1625 80.2562 15.2624 80.2601L16.3347 80.3065L16.7015 82.9375C16.7131 83.0682 16.8067 83.1774 16.9352 83.2092L18.039 83.4839C18.1551 83.5129 18.2767 83.4727 18.3533 83.3804L20.4885 80.8072C20.5646 80.7155 20.5814 80.5873 20.5316 80.4787L20.5312 80.4788ZM17.7413 82.1698L17.3171 80.3491L19.1848 80.4301L17.7413 82.1698Z" fill="#1B3347"/>
</g>
<g clip-path="url(#clip41_1241_194)">
<path d="M73.5312 132.479L73.0577 131.446C73.0027 131.325 72.8782 131.254 72.7469 131.266L70.0946 131.391L69.8507 130.346C69.8285 130.248 69.7393 130.181 69.6396 130.185L69.2696 130.203C69.1475 130.208 69.0565 130.317 69.0734 130.438L69.212 131.432L68.2094 131.479C68.088 131.485 67.9969 131.594 68.0144 131.715L68.0658 132.082C68.0802 132.181 68.1625 132.256 68.2624 132.26L69.3347 132.306L69.7015 134.937C69.7131 135.068 69.8067 135.177 69.9352 135.209L71.039 135.484C71.1551 135.513 71.2767 135.473 71.3533 135.38L73.4885 132.807C73.5646 132.715 73.5814 132.587 73.5316 132.479L73.5312 132.479ZM70.7413 134.17L70.3171 132.349L72.1848 132.43L70.7413 134.17Z" fill="#1B3347"/>
</g>
<g clip-path="url(#clip42_1241_194)">
<path d="M183.531 65.4788L183.058 64.4457C183.003 64.3253 182.878 64.2535 182.747 64.2657L180.095 64.3906L179.851 63.3459C179.829 63.2484 179.739 63.1808 179.64 63.1854L179.27 63.2026C179.148 63.2077 179.056 63.3175 179.073 63.4379L179.212 64.4319L178.209 64.4791C178.088 64.4847 177.997 64.5945 178.014 64.7154L178.066 65.0822C178.08 65.1815 178.163 65.2562 178.262 65.2601L179.335 65.3065L179.702 67.9375C179.713 68.0682 179.807 68.1774 179.935 68.2092L181.039 68.4839C181.155 68.5129 181.277 68.4727 181.353 68.3804L183.488 65.8072C183.565 65.7155 183.581 65.5873 183.532 65.4787L183.531 65.4788ZM180.741 67.1698L180.317 65.3491L182.185 65.4301L180.741 67.1698Z" fill="#1B3347"/>
</g>
<g clip-path="url(#clip43_1241_194)">
<path d="M270.531 128.479L270.058 127.446C270.003 127.325 269.878 127.254 269.747 127.266L267.095 127.391L266.851 126.346C266.829 126.248 266.739 126.181 266.64 126.185L266.27 126.203C266.148 126.208 266.056 126.317 266.073 126.438L266.212 127.432L265.209 127.479C265.088 127.485 264.997 127.594 265.014 127.715L265.066 128.082C265.08 128.181 265.163 128.256 265.262 128.26L266.335 128.306L266.702 130.937C266.713 131.068 266.807 131.177 266.935 131.209L268.039 131.484C268.155 131.513 268.277 131.473 268.353 131.38L270.488 128.807C270.565 128.715 270.581 128.587 270.532 128.479L270.531 128.479ZM267.741 130.17L267.317 128.349L269.185 128.43L267.741 130.17Z" fill="#1B3347"/>
</g>
<g clip-path="url(#clip44_1241_194)">
<path d="M417.531 16.4788L417.058 15.4457C417.003 15.3253 416.878 15.2535 416.747 15.2657L414.095 15.3906L413.851 14.3459C413.829 14.2484 413.739 14.1808 413.64 14.1854L413.27 14.2026C413.148 14.2077 413.056 14.3175 413.073 14.4379L413.212 15.4319L412.209 15.4791C412.088 15.4847 411.997 15.5945 412.014 15.7154L412.066 16.0822C412.08 16.1815 412.163 16.2562 412.262 16.2601L413.335 16.3065L413.702 18.9375C413.713 19.0682 413.807 19.1774 413.935 19.2092L415.039 19.4839C415.155 19.5129 415.277 19.4727 415.353 19.3804L417.488 16.8072C417.565 16.7155 417.581 16.5873 417.532 16.4787L417.531 16.4788ZM414.741 18.1698L414.317 16.3491L416.185 16.4301L414.741 18.1698Z" fill="#1B3347"/>
</g>
<g clip-path="url(#clip45_1241_194)">
<path d="M474.531 74.4788L474.058 73.4457C474.003 73.3253 473.878 73.2535 473.747 73.2657L471.095 73.3906L470.851 72.3459C470.829 72.2484 470.739 72.1808 470.64 72.1854L470.27 72.2026C470.148 72.2077 470.056 72.3175 470.073 72.4379L470.212 73.4319L469.209 73.4791C469.088 73.4847 468.997 73.5945 469.014 73.7154L469.066 74.0822C469.08 74.1815 469.163 74.2562 469.262 74.2601L470.335 74.3065L470.702 76.9375C470.713 77.0682 470.807 77.1774 470.935 77.2092L472.039 77.4839C472.155 77.5129 472.277 77.4727 472.353 77.3804L474.488 74.8072C474.565 74.7155 474.581 74.5873 474.532 74.4787L474.531 74.4788ZM471.741 76.1698L471.317 74.3491L473.185 74.4301L471.741 76.1698Z" fill="#1B3347"/>
</g>
<g clip-path="url(#clip46_1241_194)">
<path d="M474.531 130.479L474.058 129.446C474.003 129.325 473.878 129.254 473.747 129.266L471.095 129.391L470.851 128.346C470.829 128.248 470.739 128.181 470.64 128.185L470.27 128.203C470.148 128.208 470.056 128.317 470.073 128.438L470.212 129.432L469.209 129.479C469.088 129.485 468.997 129.594 469.014 129.715L469.066 130.082C469.08 130.181 469.163 130.256 469.262 130.26L470.335 130.306L470.702 132.937C470.713 133.068 470.807 133.177 470.935 133.209L472.039 133.484C472.155 133.513 472.277 133.473 472.353 133.38L474.488 130.807C474.565 130.715 474.581 130.587 474.532 130.479L474.531 130.479ZM471.741 132.17L471.317 130.349L473.185 130.43L471.741 132.17Z" fill="#1B3347"/>
</g>
<g clip-path="url(#clip47_1241_194)">
<path d="M554.531 29.4788L554.058 28.4457C554.003 28.3253 553.878 28.2535 553.747 28.2657L551.095 28.3906L550.851 27.3459C550.829 27.2484 550.739 27.1808 550.64 27.1854L550.27 27.2026C550.148 27.2077 550.056 27.3175 550.073 27.4379L550.212 28.4319L549.209 28.4791C549.088 28.4847 548.997 28.5945 549.014 28.7154L549.066 29.0822C549.08 29.1815 549.163 29.2562 549.262 29.2601L550.335 29.3065L550.702 31.9375C550.713 32.0682 550.807 32.1774 550.935 32.2092L552.039 32.4839C552.155 32.5129 552.277 32.4727 552.353 32.3804L554.488 29.8072C554.565 29.7155 554.581 29.5873 554.532 29.4787L554.531 29.4788ZM551.741 31.1698L551.317 29.3491L553.185 29.4301L551.741 31.1698Z" fill="#1B3347"/>
</g>
<g clip-path="url(#clip48_1241_194)">
<path d="M628.531 80.4788L628.058 79.4457C628.003 79.3253 627.878 79.2535 627.747 79.2657L625.095 79.3906L624.851 78.3459C624.829 78.2484 624.739 78.1808 624.64 78.1854L624.27 78.2026C624.148 78.2077 624.056 78.3175 624.073 78.4379L624.212 79.4319L623.209 79.4791C623.088 79.4847 622.997 79.5945 623.014 79.7154L623.066 80.0822C623.08 80.1815 623.163 80.2562 623.262 80.2601L624.335 80.3065L624.702 82.9375C624.713 83.0682 624.807 83.1774 624.935 83.2092L626.039 83.4839C626.155 83.5129 626.277 83.4727 626.353 83.3804L628.488 80.8072C628.565 80.7155 628.581 80.5873 628.532 80.4787L628.531 80.4788ZM625.741 82.1698L625.317 80.3491L627.185 80.4301L625.741 82.1698Z" fill="#1B3347"/>
</g>
<g clip-path="url(#clip49_1241_194)">
<path d="M728.531 77.4788L728.058 76.4457C728.003 76.3253 727.878 76.2535 727.747 76.2657L725.095 76.3906L724.851 75.3459C724.829 75.2484 724.739 75.1808 724.64 75.1854L724.27 75.2026C724.148 75.2077 724.056 75.3175 724.073 75.4379L724.212 76.4319L723.209 76.4791C723.088 76.4847 722.997 76.5945 723.014 76.7154L723.066 77.0822C723.08 77.1815 723.163 77.2562 723.262 77.2601L724.335 77.3065L724.702 79.9375C724.713 80.0682 724.807 80.1774 724.935 80.2092L726.039 80.4839C726.155 80.5129 726.277 80.4727 726.353 80.3804L728.488 77.8072C728.565 77.7155 728.581 77.5873 728.532 77.4787L728.531 77.4788ZM725.741 79.1698L725.317 77.3491L727.185 77.4301L725.741 79.1698Z" fill="#1B3347"/>
</g>
<g clip-path="url(#clip50_1241_194)">
<path d="M801.531 23.4788L801.058 22.4457C801.003 22.3253 800.878 22.2535 800.747 22.2657L798.095 22.3906L797.851 21.3459C797.829 21.2484 797.739 21.1808 797.64 21.1854L797.27 21.2026C797.148 21.2077 797.056 21.3175 797.073 21.4379L797.212 22.4319L796.209 22.4791C796.088 22.4847 795.997 22.5945 796.014 22.7154L796.066 23.0822C796.08 23.1815 796.163 23.2562 796.262 23.2601L797.335 23.3065L797.702 25.9375C797.713 26.0682 797.807 26.1774 797.935 26.2092L799.039 26.4839C799.155 26.5129 799.277 26.4727 799.353 26.3804L801.488 23.8072C801.565 23.7155 801.581 23.5873 801.532 23.4787L801.531 23.4788ZM798.741 25.1698L798.317 23.3491L800.185 23.4301L798.741 25.1698Z" fill="#1B3347"/>
</g>
<g clip-path="url(#clip51_1241_194)">
<path d="M820.531 127.479L820.058 126.446C820.003 126.325 819.878 126.254 819.747 126.266L817.095 126.391L816.851 125.346C816.829 125.248 816.739 125.181 816.64 125.185L816.27 125.203C816.148 125.208 816.056 125.317 816.073 125.438L816.212 126.432L815.209 126.479C815.088 126.485 814.997 126.594 815.014 126.715L815.066 127.082C815.08 127.181 815.163 127.256 815.262 127.26L816.335 127.306L816.702 129.937C816.713 130.068 816.807 130.177 816.935 130.209L818.039 130.484C818.155 130.513 818.277 130.473 818.353 130.38L820.488 127.807C820.565 127.715 820.581 127.587 820.532 127.479L820.531 127.479ZM817.741 129.17L817.317 127.349L819.185 127.43L817.741 129.17Z" fill="#1B3347"/>
</g>
<g clip-path="url(#clip52_1241_194)">
<path d="M867.531 75.4788L867.058 74.4457C867.003 74.3253 866.878 74.2535 866.747 74.2657L864.095 74.3906L863.851 73.3459C863.829 73.2484 863.739 73.1808 863.64 73.1854L863.27 73.2026C863.148 73.2077 863.056 73.3175 863.073 73.4379L863.212 74.4319L862.209 74.4791C862.088 74.4847 861.997 74.5945 862.014 74.7154L862.066 75.0822C862.08 75.1815 862.163 75.2562 862.262 75.2601L863.335 75.3065L863.702 77.9375C863.713 78.0682 863.807 78.1774 863.935 78.2092L865.039 78.4839C865.155 78.5129 865.277 78.4727 865.353 78.3804L867.488 75.8072C867.565 75.7155 867.581 75.5873 867.532 75.4787L867.531 75.4788ZM864.741 77.1698L864.317 75.3491L866.185 75.4301L864.741 77.1698Z" fill="#1B3347"/>
</g>
<g clip-path="url(#clip53_1241_194)">
<path d="M942.531 39.4788L942.058 38.4457C942.003 38.3253 941.878 38.2535 941.747 38.2657L939.095 38.3906L938.851 37.3459C938.829 37.2484 938.739 37.1808 938.64 37.1854L938.27 37.2026C938.148 37.2077 938.056 37.3175 938.073 37.4379L938.212 38.4319L937.209 38.4791C937.088 38.4847 936.997 38.5945 937.014 38.7154L937.066 39.0822C937.08 39.1815 937.163 39.2562 937.262 39.2601L938.335 39.3065L938.702 41.9375C938.713 42.0682 938.807 42.1774 938.935 42.2092L940.039 42.4839C940.155 42.5129 940.277 42.4727 940.353 42.3804L942.488 39.8072C942.565 39.7155 942.581 39.5873 942.532 39.4787L942.531 39.4788ZM939.741 41.1698L939.317 39.3491L941.185 39.4301L939.741 41.1698Z" fill="#1B3347"/>
</g>
<g clip-path="url(#clip54_1241_194)">
<path d="M961.531 107.479L961.058 106.446C961.003 106.325 960.878 106.254 960.747 106.266L958.095 106.391L957.851 105.346C957.829 105.248 957.739 105.181 957.64 105.185L957.27 105.203C957.148 105.208 957.056 105.317 957.073 105.438L957.212 106.432L956.209 106.479C956.088 106.485 955.997 106.594 956.014 106.715L956.066 107.082C956.08 107.181 956.163 107.256 956.262 107.26L957.335 107.306L957.702 109.937C957.713 110.068 957.807 110.177 957.935 110.209L959.039 110.484C959.155 110.513 959.277 110.473 959.353 110.38L961.488 107.807C961.565 107.715 961.581 107.587 961.532 107.479L961.531 107.479ZM958.741 109.17L958.317 107.349L960.185 107.43L958.741 109.17Z" fill="#1B3347"/>
</g>
<g clip-path="url(#clip55_1241_194)">
<path d="M1026.53 60.4788L1026.06 59.4457C1026 59.3253 1025.88 59.2535 1025.75 59.2657L1023.09 59.3906L1022.85 58.3459C1022.83 58.2484 1022.74 58.1808 1022.64 58.1854L1022.27 58.2026C1022.15 58.2077 1022.06 58.3175 1022.07 58.4379L1022.21 59.4319L1021.21 59.4791C1021.09 59.4847 1021 59.5945 1021.01 59.7154L1021.07 60.0822C1021.08 60.1815 1021.16 60.2562 1021.26 60.2601L1022.33 60.3065L1022.7 62.9375C1022.71 63.0682 1022.81 63.1774 1022.94 63.2092L1024.04 63.4839C1024.16 63.5129 1024.28 63.4727 1024.35 63.3804L1026.49 60.8072C1026.56 60.7155 1026.58 60.5873 1026.53 60.4787L1026.53 60.4788ZM1023.74 62.1698L1023.32 60.3491L1025.18 60.4301L1023.74 62.1698Z" fill="#1B3347"/>
</g>
<g clip-path="url(#clip56_1241_194)">
<path d="M441.955 40.0487L439.889 39.5754C439.648 39.5199 439.401 39.6226 439.27 39.8306L436.441 43.8959L434.618 43.0698C434.449 42.992 434.247 43.0472 434.141 43.1999L433.746 43.7668C433.615 43.9531 433.674 44.2126 433.871 44.3243L435.499 45.2487L434.43 46.7854C434.3 46.9714 434.359 47.2309 434.558 47.3423L435.159 47.6831C435.322 47.7745 435.526 47.7377 435.645 47.5943L436.932 46.0608L441.241 48.5073C441.448 48.6387 441.716 48.6243 441.908 48.4704L443.569 47.1496C443.744 47.0108 443.823 46.7853 443.773 46.5671L442.392 40.4849C442.343 40.2682 442.173 40.0977 441.955 40.048L441.955 40.0487ZM441.287 46.097L438.111 44.656L440.353 41.985L441.287 46.097Z" fill="#1B3347"/>
</g>
<g clip-path="url(#clip57_1241_194)">
<path d="M516.955 74.0487L514.889 73.5754C514.648 73.5199 514.401 73.6226 514.27 73.8306L511.441 77.8959L509.618 77.0698C509.449 76.992 509.247 77.0472 509.141 77.1999L508.746 77.7668C508.615 77.9531 508.674 78.2126 508.871 78.3243L510.499 79.2487L509.43 80.7854C509.3 80.9714 509.359 81.2309 509.558 81.3423L510.159 81.6831C510.322 81.7745 510.526 81.7377 510.645 81.5943L511.932 80.0608L516.241 82.5073C516.448 82.6387 516.716 82.6243 516.908 82.4704L518.569 81.1496C518.744 81.0108 518.823 80.7853 518.773 80.5671L517.392 74.4849C517.343 74.2682 517.173 74.0977 516.955 74.048L516.955 74.0487ZM516.287 80.097L513.111 78.656L515.353 75.985L516.287 80.097Z" fill="#1B3347"/>
</g>
<g clip-path="url(#clip58_1241_194)">
<path d="M583.955 18.0487L581.889 17.5754C581.648 17.5199 581.401 17.6226 581.27 17.8306L578.441 21.8959L576.618 21.0698C576.449 20.992 576.247 21.0472 576.141 21.1999L575.746 21.7668C575.615 21.9531 575.674 22.2126 575.871 22.3243L577.499 23.2487L576.43 24.7854C576.3 24.9714 576.359 25.2309 576.558 25.3423L577.159 25.6831C577.322 25.7745 577.526 25.7377 577.645 25.5943L578.932 24.0608L583.241 26.5073C583.448 26.6387 583.716 26.6243 583.908 26.4704L585.569 25.1496C585.744 25.0108 585.823 24.7853 585.773 24.5671L584.392 18.4849C584.343 18.2682 584.173 18.0977 583.955 18.048L583.955 18.0487ZM583.287 24.097L580.111 22.656L582.353 19.985L583.287 24.097Z" fill="#1B3347"/>
</g>
<g clip-path="url(#clip59_1241_194)">
<path d="M634.955 118.049L632.889 117.575C632.648 117.52 632.401 117.623 632.27 117.831L629.441 121.896L627.618 121.07C627.449 120.992 627.247 121.047 627.141 121.2L626.746 121.767C626.615 121.953 626.674 122.213 626.871 122.324L628.499 123.249L627.43 124.785C627.3 124.971 627.359 125.231 627.558 125.342L628.159 125.683C628.322 125.775 628.526 125.738 628.645 125.594L629.932 124.061L634.241 126.507C634.448 126.639 634.716 126.624 634.908 126.47L636.569 125.15C636.744 125.011 636.823 124.785 636.773 124.567L635.392 118.485C635.343 118.268 635.173 118.098 634.955 118.048L634.955 118.049ZM634.287 124.097L631.111 122.656L633.353 119.985L634.287 124.097Z" fill="#1B3347"/>
</g>
<g clip-path="url(#clip60_1241_194)">
<path d="M691.955 9.04866L689.889 8.57541C689.648 8.51992 689.401 8.62259 689.27 8.83056L686.441 12.8959L684.618 12.0698C684.449 11.992 684.247 12.0472 684.141 12.1999L683.746 12.7668C683.615 12.9531 683.674 13.2126 683.871 13.3243L685.499 14.2487L684.43 15.7854C684.3 15.9714 684.359 16.2309 684.558 16.3423L685.159 16.6831C685.322 16.7745 685.526 16.7377 685.645 16.5943L686.932 15.0608L691.241 17.5073C691.448 17.6387 691.716 17.6243 691.908 17.4704L693.569 16.1496C693.744 16.0108 693.823 15.7853 693.773 15.5671L692.392 9.48494C692.343 9.2682 692.173 9.09774 691.955 9.04797L691.955 9.04866ZM691.287 15.097L688.111 13.656L690.353 10.985L691.287 15.097Z" fill="#1B3347"/>
</g>
<g clip-path="url(#clip61_1241_194)">
<path d="M801.955 49.0487L799.889 48.5754C799.648 48.5199 799.401 48.6226 799.27 48.8306L796.441 52.8959L794.618 52.0698C794.449 51.992 794.247 52.0472 794.141 52.1999L793.746 52.7668C793.615 52.9531 793.674 53.2126 793.871 53.3243L795.499 54.2487L794.43 55.7854C794.3 55.9714 794.359 56.2309 794.558 56.3423L795.159 56.6831C795.322 56.7745 795.526 56.7377 795.645 56.5943L796.932 55.0608L801.241 57.5073C801.448 57.6387 801.716 57.6243 801.908 57.4704L803.569 56.1496C803.744 56.0108 803.823 55.7853 803.773 55.5671L802.392 49.4849C802.343 49.2682 802.173 49.0977 801.955 49.048L801.955 49.0487ZM801.287 55.097L798.111 53.656L800.353 50.985L801.287 55.097Z" fill="#1B3347"/>
</g>
<g clip-path="url(#clip62_1241_194)">
<path d="M718.955 120.049L716.889 119.575C716.648 119.52 716.401 119.623 716.27 119.831L713.441 123.896L711.618 123.07C711.449 122.992 711.247 123.047 711.141 123.2L710.746 123.767C710.615 123.953 710.674 124.213 710.871 124.324L712.499 125.249L711.43 126.785C711.3 126.971 711.359 127.231 711.558 127.342L712.159 127.683C712.322 127.775 712.526 127.738 712.645 127.594L713.932 126.061L718.241 128.507C718.448 128.639 718.716 128.624 718.908 128.47L720.569 127.15C720.744 127.011 720.823 126.785 720.773 126.567L719.392 120.485C719.343 120.268 719.173 120.098 718.955 120.048L718.955 120.049ZM718.287 126.097L715.111 124.656L717.353 121.985L718.287 126.097Z" fill="#1B3347"/>
</g>
<g clip-path="url(#clip63_1241_194)">
<path d="M898.955 18.0487L896.889 17.5754C896.648 17.5199 896.401 17.6226 896.27 17.8306L893.441 21.8959L891.618 21.0698C891.449 20.992 891.247 21.0472 891.141 21.1999L890.746 21.7668C890.615 21.9531 890.674 22.2126 890.871 22.3243L892.499 23.2487L891.43 24.7854C891.3 24.9714 891.359 25.2309 891.558 25.3423L892.159 25.6831C892.322 25.7745 892.526 25.7377 892.645 25.5943L893.932 24.0608L898.241 26.5073C898.448 26.6387 898.716 26.6243 898.908 26.4704L900.569 25.1496C900.744 25.0108 900.823 24.7853 900.773 24.5671L899.392 18.4849C899.343 18.2682 899.173 18.0977 898.955 18.048L898.955 18.0487ZM898.287 24.097L895.111 22.656L897.353 19.985L898.287 24.097Z" fill="#1B3347"/>
</g>
<g clip-path="url(#clip64_1241_194)">
<path d="M876.955 122.049L874.889 121.575C874.648 121.52 874.401 121.623 874.27 121.831L871.441 125.896L869.618 125.07C869.449 124.992 869.247 125.047 869.141 125.2L868.746 125.767C868.615 125.953 868.674 126.213 868.871 126.324L870.499 127.249L869.43 128.785C869.3 128.971 869.359 129.231 869.558 129.342L870.159 129.683C870.322 129.775 870.526 129.738 870.645 129.594L871.932 128.061L876.241 130.507C876.448 130.639 876.716 130.624 876.908 130.47L878.569 129.15C878.744 129.011 878.823 128.785 878.773 128.567L877.392 122.485C877.343 122.268 877.173 122.098 876.955 122.048L876.955 122.049ZM876.287 128.097L873.111 126.656L875.353 123.985L876.287 128.097Z" fill="#1B3347"/>
</g>
<g clip-path="url(#clip65_1241_194)">
<path d="M1006.95 12.0487L1004.89 11.5754C1004.65 11.5199 1004.4 11.6226 1004.27 11.8306L1001.44 15.8959L999.618 15.0698C999.449 14.992 999.247 15.0472 999.141 15.1999L998.746 15.7668C998.615 15.9531 998.674 16.2126 998.871 16.3243L1000.5 17.2487L999.43 18.7854C999.3 18.9714 999.359 19.2309 999.558 19.3423L1000.16 19.6831C1000.32 19.7745 1000.53 19.7377 1000.65 19.5943L1001.93 18.0608L1006.24 20.5073C1006.45 20.6387 1006.72 20.6243 1006.91 20.4704L1008.57 19.1496C1008.74 19.0108 1008.82 18.7853 1008.77 18.5671L1007.39 12.4849C1007.34 12.2682 1007.17 12.0977 1006.96 12.048L1006.95 12.0487ZM1006.29 18.097L1003.11 16.656L1005.35 13.985L1006.29 18.097Z" fill="#1B3347"/>
</g>
<g clip-path="url(#clip66_1241_194)">
<path d="M1017.95 123.049L1015.89 122.575C1015.65 122.52 1015.4 122.623 1015.27 122.831L1012.44 126.896L1010.62 126.07C1010.45 125.992 1010.25 126.047 1010.14 126.2L1009.75 126.767C1009.61 126.953 1009.67 127.213 1009.87 127.324L1011.5 128.249L1010.43 129.785C1010.3 129.971 1010.36 130.231 1010.56 130.342L1011.16 130.683C1011.32 130.775 1011.53 130.738 1011.65 130.594L1012.93 129.061L1017.24 131.507C1017.45 131.639 1017.72 131.624 1017.91 131.47L1019.57 130.15C1019.74 130.011 1019.82 129.785 1019.77 129.567L1018.39 123.485C1018.34 123.268 1018.17 123.098 1017.96 123.048L1017.95 123.049ZM1017.29 129.097L1014.11 127.656L1016.35 124.985L1017.29 129.097Z" fill="#1B3347"/>
</g>
<defs>
<clipPath id="clip0_1241_194">
<rect width="25" height="25" fill="white" transform="translate(16 27.3765) rotate(-27.0687)"/>
</clipPath>
<clipPath id="clip1_1241_194">
<rect width="25" height="25" fill="white" transform="translate(89 98.3765) rotate(-27.0687)"/>
</clipPath>
<clipPath id="clip2_1241_194">
<rect width="25" height="25" fill="white" transform="translate(143 27.3765) rotate(-27.0687)"/>
</clipPath>
<clipPath id="clip3_1241_194">
<rect width="25" height="25" fill="white" transform="translate(197 104.376) rotate(-27.0687)"/>
</clipPath>
<clipPath id="clip4_1241_194">
<rect width="25" height="25" fill="white" transform="translate(251 39.3765) rotate(-27.0687)"/>
</clipPath>
<clipPath id="clip5_1241_194">
<rect width="25" height="25" fill="white" transform="translate(297 104.376) rotate(-27.0687)"/>
</clipPath>
<clipPath id="clip6_1241_194">
<rect width="25" height="25" fill="white" transform="translate(349 33.3765) rotate(-27.0687)"/>
</clipPath>
<clipPath id="clip7_1241_194">
<rect width="25" height="25" fill="white" transform="translate(418 99.3765) rotate(-27.0687)"/>
</clipPath>
<clipPath id="clip8_1241_194">
<rect width="25" height="25" fill="white" transform="translate(483 28.3765) rotate(-27.0687)"/>
</clipPath>
<clipPath id="clip9_1241_194">
<rect width="25" height="25" fill="white" transform="translate(551 104.376) rotate(-27.0687)"/>
</clipPath>
<clipPath id="clip10_1241_194">
<rect width="25" height="25" fill="white" transform="translate(609 22.3765) rotate(-27.0687)"/>
</clipPath>
<clipPath id="clip11_1241_194">
<rect width="25" height="25" fill="white" transform="translate(658 93.3765) rotate(-27.0687)"/>
</clipPath>
<clipPath id="clip12_1241_194">
<rect width="25" height="25" fill="white" transform="translate(725 23.3765) rotate(-27.0687)"/>
</clipPath>
<clipPath id="clip13_1241_194">
<rect width="25" height="25" fill="white" transform="translate(748 93.3765) rotate(-27.0687)"/>
</clipPath>
<clipPath id="clip14_1241_194">
<rect width="25" height="25" fill="white" transform="translate(830 28.3765) rotate(-27.0687)"/>
</clipPath>
<clipPath id="clip15_1241_194">
<rect width="25" height="25" fill="white" transform="translate(900 105.376) rotate(-27.0687)"/>
</clipPath>
<clipPath id="clip16_1241_194">
<rect width="25" height="25" fill="white" transform="translate(949.369 42.9897) rotate(-35.79)"/>
</clipPath>
<clipPath id="clip17_1241_194">
<rect width="17.5646" height="17.5646" fill="white" transform="translate(979.233 83.0559) rotate(35.5931)"/>
</clipPath>
<clipPath id="clip18_1241_194">
<rect width="17.5646" height="17.5646" fill="white" transform="translate(900.223 46) rotate(35.5931)"/>
</clipPath>
<clipPath id="clip19_1241_194">
<rect width="17.5646" height="17.5646" fill="white" transform="translate(840.223 94) rotate(35.5931)"/>
</clipPath>
<clipPath id="clip20_1241_194">
<rect width="17.5646" height="17.5646" fill="white" transform="translate(685.223 39) rotate(35.5931)"/>
</clipPath>
<clipPath id="clip21_1241_194">
<rect width="17.5646" height="17.5646" fill="white" transform="translate(558.223 52) rotate(35.5931)"/>
</clipPath>
<clipPath id="clip22_1241_194">
<rect width="17.5646" height="17.5646" fill="white" transform="translate(502.223 96) rotate(35.5931)"/>
</clipPath>
<clipPath id="clip23_1241_194">
<rect width="17.5646" height="17.5646" fill="white" transform="translate(324.223 51) rotate(35.5931)"/>
</clipPath>
<clipPath id="clip24_1241_194">
<rect width="17.5646" height="17.5646" fill="white" transform="translate(156.223 79) rotate(35.5931)"/>
</clipPath>
<clipPath id="clip25_1241_194">
<rect width="17.5646" height="17.5646" fill="white" transform="translate(97.2231 36) rotate(35.5931)"/>
</clipPath>
<clipPath id="clip26_1241_194">
<rect width="17.5646" height="17.5646" fill="white" transform="translate(33.4202 103) rotate(45)"/>
</clipPath>
<clipPath id="clip27_1241_194">
<rect width="9.28502" height="9.28502" fill="white" transform="translate(53.7444 80.8743) rotate(-12.7906)"/>
</clipPath>
<clipPath id="clip28_1241_194">
<rect width="9.28502" height="9.28502" fill="white" transform="translate(114 13.0557) rotate(-12.7906)"/>
</clipPath>
<clipPath id="clip29_1241_194">
<rect width="9.28502" height="9.28502" fill="white" transform="translate(161 123.056) rotate(-12.7906)"/>
</clipPath>
<clipPath id="clip30_1241_194">
<rect width="9.28502" height="9.28502" fill="white" transform="translate(212 58.0557) rotate(-12.7906)"/>
</clipPath>
<clipPath id="clip31_1241_194">
<rect width="9.28502" height="9.28502" fill="white" transform="translate(320 16.0557) rotate(-12.7906)"/>
</clipPath>
<clipPath id="clip32_1241_194">
<rect width="9.28502" height="9.28502" fill="white" transform="translate(381 111.056) rotate(-12.7906)"/>
</clipPath>
<clipPath id="clip33_1241_194">
<rect width="4.97788" height="4.97788" fill="white" transform="translate(392.179 70) rotate(39.6841)"/>
</clipPath>
<clipPath id="clip34_1241_194">
<rect width="4.97788" height="4.97788" fill="white" transform="translate(352.179 119) rotate(39.6841)"/>
</clipPath>
<clipPath id="clip35_1241_194">
<rect width="4.97788" height="4.97788" fill="white" transform="translate(281.179 81) rotate(39.6841)"/>
</clipPath>
<clipPath id="clip36_1241_194">
<rect width="4.97788" height="4.97788" fill="white" transform="translate(222.179 21) rotate(39.6841)"/>
</clipPath>
<clipPath id="clip37_1241_194">
<rect width="4.97788" height="4.97788" fill="white" transform="translate(132.179 123) rotate(39.6841)"/>
</clipPath>
<clipPath id="clip38_1241_194">
<rect width="4.97788" height="4.97788" fill="white" transform="translate(128.179 64) rotate(39.6841)"/>
</clipPath>
<clipPath id="clip39_1241_194">
<rect width="4.97788" height="4.97788" fill="white" transform="translate(73.1787 20) rotate(39.6841)"/>
</clipPath>
<clipPath id="clip40_1241_194">
<rect width="4.97788" height="4.97788" fill="white" transform="translate(17.1787 77) rotate(39.6841)"/>
</clipPath>
<clipPath id="clip41_1241_194">
<rect width="4.97788" height="4.97788" fill="white" transform="translate(70.1787 129) rotate(39.6841)"/>
</clipPath>
<clipPath id="clip42_1241_194">
<rect width="4.97788" height="4.97788" fill="white" transform="translate(180.179 62) rotate(39.6841)"/>
</clipPath>
<clipPath id="clip43_1241_194">
<rect width="4.97788" height="4.97788" fill="white" transform="translate(267.179 125) rotate(39.6841)"/>
</clipPath>
<clipPath id="clip44_1241_194">
<rect width="4.97788" height="4.97788" fill="white" transform="translate(414.179 13) rotate(39.6841)"/>
</clipPath>
<clipPath id="clip45_1241_194">
<rect width="4.97788" height="4.97788" fill="white" transform="translate(471.179 71) rotate(39.6841)"/>
</clipPath>
<clipPath id="clip46_1241_194">
<rect width="4.97788" height="4.97788" fill="white" transform="translate(471.179 127) rotate(39.6841)"/>
</clipPath>
<clipPath id="clip47_1241_194">
<rect width="4.97788" height="4.97788" fill="white" transform="translate(551.179 26) rotate(39.6841)"/>
</clipPath>
<clipPath id="clip48_1241_194">
<rect width="4.97788" height="4.97788" fill="white" transform="translate(625.179 77) rotate(39.6841)"/>
</clipPath>
<clipPath id="clip49_1241_194">
<rect width="4.97788" height="4.97788" fill="white" transform="translate(725.179 74) rotate(39.6841)"/>
</clipPath>
<clipPath id="clip50_1241_194">
<rect width="4.97788" height="4.97788" fill="white" transform="translate(798.179 20) rotate(39.6841)"/>
</clipPath>
<clipPath id="clip51_1241_194">
<rect width="4.97788" height="4.97788" fill="white" transform="translate(817.179 124) rotate(39.6841)"/>
</clipPath>
<clipPath id="clip52_1241_194">
<rect width="4.97788" height="4.97788" fill="white" transform="translate(864.179 72) rotate(39.6841)"/>
</clipPath>
<clipPath id="clip53_1241_194">
<rect width="4.97788" height="4.97788" fill="white" transform="translate(939.179 36) rotate(39.6841)"/>
</clipPath>
<clipPath id="clip54_1241_194">
<rect width="4.97788" height="4.97788" fill="white" transform="translate(958.179 104) rotate(39.6841)"/>
</clipPath>
<clipPath id="clip55_1241_194">
<rect width="4.97788" height="4.97788" fill="white" transform="translate(1023.18 57) rotate(39.6841)"/>
</clipPath>
<clipPath id="clip56_1241_194">
<rect width="9.28502" height="9.28502" fill="white" transform="translate(433 41.0557) rotate(-12.7906)"/>
</clipPath>
<clipPath id="clip57_1241_194">
<rect width="9.28502" height="9.28502" fill="white" transform="translate(508 75.0557) rotate(-12.7906)"/>
</clipPath>
<clipPath id="clip58_1241_194">
<rect width="9.28502" height="9.28502" fill="white" transform="translate(575 19.0557) rotate(-12.7906)"/>
</clipPath>
<clipPath id="clip59_1241_194">
<rect width="9.28502" height="9.28502" fill="white" transform="translate(626 119.056) rotate(-12.7906)"/>
</clipPath>
<clipPath id="clip60_1241_194">
<rect width="9.28502" height="9.28502" fill="white" transform="translate(683 10.0557) rotate(-12.7906)"/>
</clipPath>
<clipPath id="clip61_1241_194">
<rect width="9.28502" height="9.28502" fill="white" transform="translate(793 50.0557) rotate(-12.7906)"/>
</clipPath>
<clipPath id="clip62_1241_194">
<rect width="9.28502" height="9.28502" fill="white" transform="translate(710 121.056) rotate(-12.7906)"/>
</clipPath>
<clipPath id="clip63_1241_194">
<rect width="9.28502" height="9.28502" fill="white" transform="translate(890 19.0557) rotate(-12.7906)"/>
</clipPath>
<clipPath id="clip64_1241_194">
<rect width="9.28502" height="9.28502" fill="white" transform="translate(868 123.056) rotate(-12.7906)"/>
</clipPath>
<clipPath id="clip65_1241_194">
<rect width="9.28502" height="9.28502" fill="white" transform="translate(998 13.0557) rotate(-12.7906)"/>
</clipPath>
<clipPath id="clip66_1241_194">
<rect width="9.28502" height="9.28502" fill="white" transform="translate(1009 124.056) rotate(-12.7906)"/>
</clipPath>
</defs>
</svg>
