<svg width="33" height="16" viewBox="0 0 33 16" fill="none" xmlns="http://www.w3.org/2000/svg">
<path d="M23.913 11.0569L32.55 2.56993C33.141 1.98793 33.15 1.03993 32.568 0.448933C31.989 -0.142067 31.038 -0.151066 30.447 0.430934L21.801 8.92693C21.237 9.48793 20.376 10.2709 19.482 11.0689C17.781 12.5749 15.219 12.5749 13.521 11.0689C12.621 10.2709 11.76 9.48793 11.19 8.91793L2.55303 0.430933C1.96203 -0.151067 1.01103 -0.142069 0.43203 0.448931C0.144031 0.742931 2.66539e-05 1.12093 2.66372e-05 1.50193C2.66203e-05 1.88893 0.150028 2.27893 0.447029 2.56993L9.07503 11.0479C9.66603 11.6419 10.575 12.4699 11.529 13.3159C14.361 15.8239 18.633 15.8239 21.468 13.3159C22.419 12.4699 23.328 11.6419 23.91 11.0599L23.913 11.0569Z" fill="#3495EA"/>
</svg>
