<svg width="25" height="25" viewBox="0 0 25 25" fill="none" xmlns="http://www.w3.org/2000/svg">
<path d="M24.543 2.66699L14.7124 12.5004L24.543 22.3338C25.1523 22.9433 25.1523 23.9341 24.543 24.5436C24.2368 24.85 23.8368 25 23.4368 25C23.0368 25 22.6369 24.8468 22.3306 24.5436L12.5 14.7102L2.66936 24.5436C2.36313 24.85 1.96316 25 1.56318 25C1.16321 25 0.763233 24.8468 0.457003 24.5436C-0.152334 23.9341 -0.152334 22.9433 0.457003 22.3338L10.2876 12.5004L0.457003 2.66699C-0.152334 2.05748 -0.152334 1.06664 0.457003 0.457131C1.06634 -0.152377 2.0569 -0.152377 2.66624 0.457131L12.4969 10.2905L22.3275 0.457131C22.9368 -0.152377 23.9274 -0.152377 24.5367 0.457131C25.1461 1.06664 25.1461 2.05748 24.5367 2.66699H24.543Z" fill="#175892"/>
</svg>
