<svg width="46" height="37" viewBox="0 0 46 37" fill="none" xmlns="http://www.w3.org/2000/svg">
<path d="M5.75 4.625C4.95937 4.625 4.3125 5.31875 4.3125 6.16667V8.29609L19.8105 21.9398C21.6703 23.5779 24.3387 23.5779 26.1984 21.9398L41.6875 8.29609V6.16667C41.6875 5.31875 41.0406 4.625 40.25 4.625H5.75ZM4.3125 14.2797V30.8333C4.3125 31.6812 4.95937 32.375 5.75 32.375H40.25C41.0406 32.375 41.6875 31.6812 41.6875 30.8333V14.2797L28.9297 25.5146C25.4797 28.5497 20.5113 28.5497 17.0703 25.5146L4.3125 14.2797ZM0 6.16667C0 2.76536 2.57852 0 5.75 0H40.25C43.4215 0 46 2.76536 46 6.16667V30.8333C46 34.2346 43.4215 37 40.25 37H5.75C2.57852 37 0 34.2346 0 30.8333V6.16667Z" fill="#3495EA"/>
</svg>
