<svg width="27" height="27" viewBox="0 0 27 27" fill="none" xmlns="http://www.w3.org/2000/svg">
<path fill-rule="evenodd" clip-rule="evenodd" d="M13.5 0C6.04463 0 0 6.0435 0 13.5C0 19.4647 3.86775 24.525 9.23175 26.3104C9.90675 26.4352 10.1543 26.0179 10.1543 25.6612C10.1543 25.3395 10.1419 24.2764 10.1363 23.148C6.381 23.9647 5.58788 21.555 5.58788 21.555C4.97363 19.9946 4.08938 19.5795 4.08938 19.5795C2.86425 18.7414 4.18163 18.7594 4.18163 18.7594C5.53725 18.855 6.2505 20.151 6.2505 20.151C7.45425 22.2142 9.40838 21.618 10.179 21.2726C10.3005 20.3996 10.6504 19.8045 11.0363 19.467C8.03813 19.1261 4.88588 17.9685 4.88588 12.7957C4.88588 11.322 5.4135 10.1171 6.2775 9.17212C6.13688 8.83125 5.6745 7.45875 6.408 5.59912C6.408 5.59912 7.542 5.23687 10.1216 6.98287C11.1983 6.68362 12.3525 6.534 13.5 6.52837C14.6475 6.534 15.8029 6.68362 16.8818 6.98287C19.458 5.23575 20.5909 5.59912 20.5909 5.59912C21.3255 7.45875 20.8631 8.83125 20.7236 9.17212C21.5888 10.1171 22.113 11.322 22.113 12.7957C22.113 17.9809 18.9551 19.1227 15.9491 19.4569C16.4329 19.8754 16.8649 20.6977 16.8649 21.9566C16.8649 23.7634 16.8491 25.2169 16.8491 25.6612C16.8491 26.0201 17.0921 26.442 17.7761 26.3092C23.1379 24.5216 27.0011 19.4636 27.0011 13.5011C27 6.04462 20.9554 0 13.5 0Z" fill="#3495EA"/>
<path d="M5.1131 19.3837C5.08385 19.4512 4.9781 19.4715 4.88135 19.4253C4.78348 19.3815 4.72835 19.2892 4.75985 19.2228C4.7891 19.1542 4.89485 19.1351 4.99273 19.1812C5.0906 19.224 5.14685 19.3162 5.1131 19.3837Z" fill="#3495EA"/>
<path d="M5.65988 19.9934C5.59576 20.053 5.46976 20.0249 5.38426 19.9315C5.29538 19.837 5.27963 19.711 5.34488 19.6514C5.41126 19.5918 5.53276 19.6199 5.62163 19.7144C5.71051 19.8078 5.72738 19.9326 5.65988 19.9934Z" fill="#3495EA"/>
<path d="M6.19203 20.7709C6.10878 20.8283 5.97378 20.7743 5.89053 20.655C5.80728 20.5346 5.80728 20.3906 5.89278 20.3333C5.97603 20.2759 6.1099 20.3276 6.19428 20.4469C6.2764 20.5684 6.2764 20.7124 6.19203 20.7709Z" fill="#3495EA"/>
<path d="M6.92101 21.5223C6.84676 21.6044 6.68926 21.5819 6.57451 21.4706C6.45638 21.3614 6.42376 21.2073 6.49801 21.1252C6.57338 21.0431 6.73201 21.0667 6.84788 21.1769C6.96488 21.2861 6.99976 21.4413 6.92101 21.5223Z" fill="#3495EA"/>
<path d="M7.92784 21.9578C7.89521 22.0635 7.74334 22.1119 7.59034 22.0669C7.43734 22.0208 7.33721 21.897 7.36871 21.7902C7.40021 21.6833 7.55321 21.6338 7.70734 21.6822C7.85921 21.7272 7.95934 21.8509 7.92784 21.9578Z" fill="#3495EA"/>
<path d="M9.03265 22.0388C9.03602 22.1501 8.90665 22.2424 8.74577 22.2446C8.5849 22.248 8.45327 22.158 8.45215 22.0489C8.45215 21.9364 8.57927 21.8453 8.74015 21.8419C8.90102 21.8385 9.03265 21.9285 9.03265 22.0388Z" fill="#3495EA"/>
<path d="M10.0608 21.8645C10.08 21.9725 9.96859 22.085 9.80884 22.1142C9.65246 22.1435 9.50734 22.076 9.48709 21.968C9.46796 21.8566 9.58159 21.7452 9.73796 21.716C9.89659 21.6879 10.0406 21.7531 10.0608 21.8645Z" fill="#3495EA"/>
</svg>
