<svg width="100" height="101" viewBox="0 0 100 101" fill="none" xmlns="http://www.w3.org/2000/svg">
<path d="M14.2857 0C6.40625 0 0 6.45013 0 14.3836V86.3014C0 94.2348 6.40625 100.685 14.2857 100.685H36.2054V67.9174H24.4196V50.3425H36.2054V42.7686C36.2054 23.1935 45 14.1139 64.1071 14.1139C67.7232 14.1139 73.9732 14.833 76.5402 15.5522V31.464C75.2009 31.3292 72.8571 31.2393 69.933 31.2393C60.558 31.2393 56.942 34.8127 56.942 44.0946V50.3425H75.6027L72.3884 67.9174H56.9196V100.685H85.7143C93.5937 100.685 100 94.2348 100 86.3014V14.3836C100 6.45013 93.5937 0 85.7143 0H14.2857Z" fill="#3495EA"/>
</svg>
