<svg width="7" height="6" viewBox="0 0 7 6" fill="none" xmlns="http://www.w3.org/2000/svg">
<g clip-path="url(#clip0_23_2)">
<path d="M6.34156 3.13711C6.95953 2.475 6.95953 1.40274 6.34156 0.740628C5.79469 0.15469 4.93281 0.0785183 4.30391 0.560159L4.28641 0.57305C4.12891 0.693753 4.09281 0.928128 4.20547 1.09571C4.31813 1.26328 4.53688 1.30313 4.69328 1.18242L4.71078 1.16953C5.06188 0.901175 5.54203 0.943362 5.84609 1.27032C6.19063 1.63946 6.19063 2.23711 5.84609 2.60625L4.61891 3.92344C4.27438 4.29258 3.71656 4.29258 3.37203 3.92344C3.06688 3.59649 3.0275 3.08203 3.27797 2.70703L3.29 2.68828C3.40266 2.51953 3.36547 2.28516 3.20906 2.16563C3.05266 2.0461 2.83281 2.08477 2.72125 2.25235L2.70922 2.2711C2.25859 2.94375 2.32969 3.86719 2.87656 4.45313C3.49453 5.11524 4.49531 5.11524 5.11328 4.45313L6.34156 3.13711ZM0.658438 2.86289C0.0404694 3.525 0.0404694 4.59727 0.658438 5.25938C1.20531 5.84532 2.06719 5.92149 2.69609 5.43985L2.71359 5.42696C2.87109 5.30625 2.90719 5.07188 2.79453 4.9043C2.68188 4.73672 2.46313 4.69688 2.30672 4.81758L2.28922 4.83047C1.93813 5.09883 1.45797 5.05664 1.15391 4.72969C0.809376 4.35938 0.809376 3.76172 1.15391 3.39258L2.38109 2.07657C2.72563 1.70742 3.28344 1.70742 3.62797 2.07657C3.93313 2.40352 3.9725 2.91797 3.72203 3.29414L3.71 3.31289C3.59734 3.48164 3.63453 3.71602 3.79094 3.83555C3.94734 3.95508 4.16719 3.91641 4.27875 3.74883L4.29078 3.73008C4.74141 3.05625 4.67031 2.13282 4.12344 1.54688C3.50547 0.884768 2.50469 0.884768 1.88672 1.54688L0.658438 2.86289Z" fill="#E5EDF5"/>
</g>
<defs>
<clipPath id="clip0_23_2">
<rect width="7" height="6" fill="white"/>
</clipPath>
</defs>
</svg>
