<svg width="100" height="100" viewBox="0 0 100 100" fill="none" xmlns="http://www.w3.org/2000/svg">
<path d="M85.2081 77.8023C85.2074 81.894 81.8902 85.2105 77.7985 85.2105C73.7062 85.2105 70.3888 81.8931 70.3888 77.8009V62.0046C70.3888 56.4705 70.2903 49.3496 62.6817 49.3496C54.9648 49.3496 53.7821 55.3765 53.7821 61.6055V77.804C53.7821 81.8945 50.4661 85.2105 46.3756 85.2105C42.2851 85.2105 38.9691 81.8945 38.9691 77.804V44.6012C38.9691 40.6726 42.1538 37.4879 46.0824 37.4879H49.9358C51.7362 37.4879 53.1957 38.9474 53.1957 40.7478V43.8823C53.1957 43.9515 53.2518 44.0076 53.321 44.0076C53.3655 44.0076 53.4067 43.9839 53.4293 43.9456C56.3403 39.0254 61.7103 36.0892 67.4272 36.3002C82.4472 36.3002 85.2117 46.1809 85.2117 59.0281L85.2081 77.8023ZM22.2491 30.9632C17.4986 30.9632 13.65 27.1145 13.65 22.3639C13.65 17.6133 17.4986 13.7645 22.2491 13.7645C26.9995 13.7645 30.8481 17.6133 30.8481 22.3639C30.8481 27.1145 26.9995 30.9632 22.2491 30.9632ZM29.6555 77.7942C29.6555 81.8901 26.3351 85.2105 22.2392 85.2105C18.1433 85.2105 14.8228 81.8901 14.8228 77.7942V44.9042C14.8228 40.8083 18.1433 37.4879 22.2392 37.4879C26.3351 37.4879 29.6555 40.8083 29.6555 44.9042V77.7942ZM92.5935 0.00560111H7.37693C3.35091 -0.0387508 0.0492781 3.18908 0 7.21525V92.7849C0.0492781 96.816 3.35091 100.044 7.37693 99.9994H92.5935C96.6294 100.049 99.9458 96.8209 100 92.7849V7.21032C99.9409 3.1743 96.6245 -0.053535 92.5935 0.000672894" fill="#175892"/>
</svg>
