<svg width="58" height="77" viewBox="0 0 58 77" fill="none" xmlns="http://www.w3.org/2000/svg">
<g clip-path="url(#clip0_74_8)">
<path d="M5 52L7 8.5L15.5 5.5L17.5 21.5L23.5 25.5L40.5 32L54.5 36L49.5 64.5L36.5 72L13 69L5 52Z" fill="#D9D9D9" stroke="black"/>
<path d="M9.66667 9.625V36.3344C10.4521 36.184 11.2526 36.0938 12.0833 36.0938H14.5V31.2812V9.625C14.5 8.30156 13.4125 7.21875 12.0833 7.21875C10.7542 7.21875 9.66667 8.30156 9.66667 9.625ZM12.0833 43.3125C9.4099 43.3125 7.25 45.4631 7.25 48.125V51.7344C7.25 61.7053 15.3609 69.7812 25.375 69.7812H32.625C40.5547 69.7812 47.2911 64.7131 49.7531 57.6447C49.2849 57.7199 48.8167 57.75 48.3333 57.75C45.3125 57.75 42.6089 56.3664 40.8266 54.2008C39.4672 54.9377 37.8964 55.3438 36.25 55.3438C33.9693 55.3438 31.8698 54.5467 30.2083 53.2383C28.5469 54.5617 26.4474 55.3438 24.1667 55.3438H18.125C16.1161 55.3438 14.5 53.7346 14.5 51.7344C14.5 49.7342 16.1161 48.125 18.125 48.125H24.1667C25.4958 48.125 26.5833 47.0422 26.5833 45.7188C26.5833 44.3953 25.4958 43.3125 24.1667 43.3125H18.125H12.0833ZM0 48.125C0 45.418 0.90625 42.9215 2.41667 40.9062V9.625C2.41667 4.31621 6.75156 0 12.0833 0C17.4151 0 21.75 4.31621 21.75 9.625V21.957C22.5203 21.7615 23.3359 21.6562 24.1667 21.6562C27.988 21.6562 31.2958 23.867 32.8667 27.0703C33.924 26.6793 35.0568 26.4688 36.25 26.4688C39.2708 26.4688 41.9745 27.8523 43.7568 30.018C45.1161 29.2811 46.687 28.875 48.3333 28.875C53.6651 28.875 58 33.1912 58 38.5V48.125V51.7344C58 65.6906 46.6417 77 32.625 77H25.375C11.3583 77 0 65.6906 0 51.7344V48.125ZM50.75 38.5C50.75 37.1766 49.6625 36.0938 48.3333 36.0938C47.0042 36.0938 45.9167 37.1766 45.9167 38.5V45.7188V48.125C45.9167 49.4484 47.0042 50.5312 48.3333 50.5312C49.6625 50.5312 50.75 49.4484 50.75 48.125V38.5ZM24.1667 36.0938C24.9974 36.0938 25.813 36.199 26.5833 36.3945V36.0938V31.2812C26.5833 29.9578 25.4958 28.875 24.1667 28.875C22.8375 28.875 21.75 29.9578 21.75 31.2812V36.0938H24.1667ZM33.8333 39.7031V45.7188C33.8333 47.0422 34.9208 48.125 36.25 48.125C37.5792 48.125 38.6667 47.0422 38.6667 45.7188V38.5V36.0938C38.6667 34.7703 37.5792 33.6875 36.25 33.6875C34.9208 33.6875 33.8333 34.7703 33.8333 36.0938V39.7031Z" fill="#060D13"/>
</g>
<defs>
<clipPath id="clip0_74_8">
<rect width="58" height="77" fill="white"/>
</clipPath>
</defs>
</svg>
