<svg width="30" height="30" viewBox="0 0 30 30" fill="none" xmlns="http://www.w3.org/2000/svg">
<path d="M29.4516 3.20039L17.6548 15.0005L29.4516 26.8006C30.1828 27.532 30.1828 28.721 29.4516 29.4524C29.0841 29.82 28.6041 30 28.1242 30C27.6442 30 27.1642 29.8162 26.7968 29.4524L15 17.6523L3.20324 29.4524C2.83576 29.82 2.35579 30 1.87582 30C1.39585 30 0.91588 29.8162 0.548403 29.4524C-0.182801 28.721 -0.182801 27.532 0.548403 26.8006L12.3452 15.0005L0.548403 3.20039C-0.182801 2.46898 -0.182801 1.27997 0.548403 0.548557C1.27961 -0.182852 2.46828 -0.182852 3.19949 0.548557L14.9962 12.3486L26.793 0.548557C27.5242 -0.182852 28.7129 -0.182852 29.4441 0.548557C30.1753 1.27997 30.1753 2.46898 29.4441 3.20039H29.4516Z" fill="#E5EDF5"/>
</svg>
