<svg width="100" height="100" viewBox="0 0 100 100" fill="none" xmlns="http://www.w3.org/2000/svg">
<rect x="0.5" y="0.5" width="99" height="99" rx="15.5" fill="#060D13" stroke="#175892"/>
<g clip-path="url(#clip0_118_29)">
<path d="M70.832 52.207C72.0527 50.9863 72.0527 49.0039 70.832 47.7832L55.207 32.1582C53.9863 30.9375 52.0039 30.9375 50.7832 32.1582C49.5625 33.3789 49.5625 35.3613 50.7832 36.582L64.2012 50L50.793 63.418C49.5723 64.6387 49.5723 66.6211 50.793 67.8418C52.0137 69.0625 53.9961 69.0625 55.2168 67.8418L70.8418 52.2168L70.832 52.207ZM36.457 67.832L52.082 52.207C53.3027 50.9863 53.3027 49.0039 52.082 47.7832L36.457 32.1582C35.2363 30.9375 33.2539 30.9375 32.0332 32.1582C30.8125 33.3789 30.8125 35.3613 32.0332 36.582L45.4512 50L32.043 63.418C30.8223 64.6387 30.8223 66.6211 32.043 67.8418C33.2637 69.0625 35.2461 69.0625 36.4668 67.8418L36.457 67.832Z" fill="#E5EDF5"/>
</g>
<defs>
<clipPath id="clip0_118_29">
<rect width="43.75" height="50" fill="white" transform="translate(74.875 28.125) rotate(90)"/>
</clipPath>
</defs>
</svg>
