<svg width="50" height="50" viewBox="0 0 50 50" fill="none" xmlns="http://www.w3.org/2000/svg">
<path d="M42.5112 7.25918C37.8348 2.57584 31.6071 0 24.9888 0C11.3281 0 0.212054 11.1062 0.212054 24.7548C0.212054 29.1148 1.35045 33.3744 3.51562 37.1322L0 49.9557L13.1362 46.5101C16.7522 48.4838 20.8259 49.5208 24.9777 49.5208H24.9888C38.6384 49.5208 50 38.4146 50 24.766C50 18.1535 47.1875 11.9425 42.5112 7.25918ZM24.9888 45.3504C21.2835 45.3504 17.6562 44.358 14.4978 42.4846L13.75 42.0386L5.95982 44.0792L8.03571 36.4855L7.54464 35.7049C5.47991 32.4266 4.39732 28.6465 4.39732 24.7548C4.39732 13.4144 13.6384 4.18156 25 4.18156C30.5022 4.18156 35.6696 6.32251 39.5536 10.2142C43.4375 14.1058 45.8259 19.2686 45.8147 24.766C45.8147 36.1175 36.3393 45.3504 24.9888 45.3504ZM36.2835 29.94C35.6696 29.6277 32.6228 28.1335 32.0536 27.9328C31.4844 27.7209 31.0714 27.6206 30.6585 28.245C30.2455 28.8695 29.0625 30.2522 28.6942 30.6759C28.3371 31.0885 27.9688 31.1442 27.3549 30.832C23.7165 29.0144 21.3281 27.5871 18.9286 23.4725C18.2924 22.3797 19.5647 22.4578 20.7478 20.0938C20.9487 19.6812 20.8482 19.3244 20.692 19.0121C20.5357 18.6999 19.2969 15.6558 18.7835 14.418C18.2812 13.2137 17.7679 13.381 17.3884 13.3587C17.0312 13.3364 16.6183 13.3364 16.2054 13.3364C15.7924 13.3364 15.1228 13.4925 14.5536 14.1058C13.9844 14.7302 12.3884 16.2244 12.3884 19.2686C12.3884 22.3128 14.6094 25.2566 14.9107 25.6692C15.2232 26.0818 19.2746 32.3262 25.4911 35.0136C29.4196 36.7085 30.9598 36.8535 32.9241 36.5635C34.1183 36.3851 36.5848 35.0693 37.0982 33.6197C37.6116 32.1701 37.6116 30.9324 37.4554 30.6759C37.3103 30.3971 36.8973 30.241 36.2835 29.94Z" fill="#175892"/>
</svg>
