<svg width="44" height="50" viewBox="0 0 44 50" fill="none" xmlns="http://www.w3.org/2000/svg">
<path d="M24.082 4.04297C22.8613 2.82227 20.8789 2.82227 19.6582 4.04297L4.0332 19.668C2.8125 20.8887 2.8125 22.8711 4.0332 24.0918C5.25391 25.3125 7.23633 25.3125 8.45703 24.0918L21.875 10.6738L35.293 24.082C36.5137 25.3027 38.4961 25.3027 39.7168 24.082C40.9375 22.8613 40.9375 20.8789 39.7168 19.6582L24.0918 4.0332L24.082 4.04297ZM39.707 38.418L24.082 22.793C22.8613 21.5723 20.8789 21.5723 19.6582 22.793L4.0332 38.418C2.8125 39.6387 2.8125 41.6211 4.0332 42.8418C5.25391 44.0625 7.23633 44.0625 8.45703 42.8418L21.875 29.4238L35.293 42.832C36.5137 44.0527 38.4961 44.0527 39.7168 42.832C40.9375 41.6113 40.9375 39.6289 39.7168 38.4082L39.707 38.418Z" fill="#E5EDF5"/>
</svg>
