<svg width="100" height="101" viewBox="0 0 100 101" fill="none" xmlns="http://www.w3.org/2000/svg">
<path d="M100 14.3135C100 6.4187 93.5937 0 85.7143 0H14.2857C6.40625 0 0 6.4187 0 14.3135V85.8808C0 93.7756 6.40625 100.194 14.2857 100.194H85.7143C93.5937 100.194 100 93.7756 100 85.8808V14.3135ZM59.3304 84.0245C59.3304 83.622 59.3304 82.6827 59.3527 81.4302C59.375 78.8806 59.375 74.9892 59.375 71.6568C59.375 68.1679 58.2143 65.9538 56.8527 64.7908C65.1116 63.8739 73.817 62.7333 73.817 48.4422C73.817 44.3718 72.3661 42.3366 70 39.7199C70.3795 38.7582 71.6518 34.7996 69.6205 29.6557C66.5179 28.694 59.4196 33.659 59.4196 33.659C56.4732 32.8315 53.2813 32.4066 50.1339 32.4066C46.9866 32.4066 43.7946 32.8315 40.8482 33.659C40.8482 33.659 33.75 28.694 30.6473 29.6557C28.6161 34.7773 29.8661 38.7358 30.2679 39.7199C27.9018 42.3366 26.7857 44.3718 26.7857 48.4422C26.7857 62.6662 35.1116 63.8739 43.3705 64.7908C42.2991 65.7525 41.3393 67.4075 41.0045 69.7782C38.8839 70.7399 33.4598 72.3949 30.2232 66.6695C28.192 63.1358 24.5313 62.8451 24.5313 62.8451C20.9152 62.8004 24.2857 65.1263 24.2857 65.1263C26.6964 66.2445 28.3929 70.5386 28.3929 70.5386C30.558 77.1809 40.9152 74.9444 40.9152 74.9444C40.9152 76.9573 40.9375 79.7976 40.9375 81.7881C40.9375 82.8616 40.9598 83.7114 40.9598 84.0245C40.9598 84.9862 40.2902 86.1492 38.3929 85.8137C23.6607 80.8711 13.3482 66.826 13.3482 50.4103C13.3482 29.8794 29.0179 14.2911 49.5089 14.2911C70 14.2911 86.6071 29.8794 86.6071 50.4103C86.6295 66.826 76.6295 80.8935 61.8973 85.8137C60.0223 86.1492 59.3304 84.9862 59.3304 84.0245ZM39.1295 71.7686C39.0848 71.4332 39.375 71.1424 39.7991 71.053C40.2232 71.0082 40.625 71.1872 40.6696 71.4779C40.7366 71.7686 40.4464 72.0594 40 72.1488C39.5759 72.2383 39.1741 72.0594 39.1295 71.7686ZM37.0982 72.4843C36.6071 72.529 36.2723 72.283 36.2723 71.9476C36.2723 71.6568 36.6071 71.4108 37.0536 71.4108C37.4777 71.3661 37.8795 71.6121 37.8795 71.9476C37.8795 72.2383 37.5446 72.4843 37.0982 72.4843ZM33.9062 71.9923C33.4821 71.9028 33.192 71.5674 33.2813 71.2766C33.3705 70.9859 33.817 70.8517 34.1964 70.9411C34.6429 71.0753 34.933 71.4108 34.8214 71.7015C34.7321 71.9923 34.2857 72.1265 33.9062 71.9923ZM31.1161 70.3597C30.7812 70.0689 30.692 69.644 30.9152 69.4427C31.1161 69.1967 31.5402 69.2414 31.875 69.5769C32.1652 69.8676 32.2768 70.3149 32.0759 70.4938C31.875 70.7399 31.4509 70.6951 31.1161 70.3597ZM29.2187 68.1232C28.9732 67.7877 28.9732 67.4075 29.2187 67.251C29.4643 67.0497 29.8438 67.2062 30.0446 67.5417C30.2902 67.8772 30.2902 68.2797 30.0446 68.4586C29.8438 68.5928 29.4643 68.4586 29.2187 68.1232ZM27.8125 66.1551C27.567 65.8643 27.5223 65.5289 27.7232 65.3723C27.9241 65.171 28.2589 65.2828 28.5045 65.5065C28.75 65.7972 28.7946 66.1327 28.5938 66.2893C28.3929 66.4905 28.058 66.3787 27.8125 66.1551ZM26.4732 64.7237C26.183 64.5895 26.0491 64.3435 26.1384 64.1422C26.2277 64.008 26.4732 63.941 26.7634 64.0528C27.0536 64.2093 27.1875 64.4553 27.0982 64.6343C27.0089 64.8355 26.7187 64.8803 26.4732 64.7237Z" fill="#3495EA"/>
</svg>
