<svg width="72" height="72" viewBox="0 0 72 72" fill="none" xmlns="http://www.w3.org/2000/svg">
<g clip-path="url(#clip0_16_17)">
<path d="M36 0C16.149 0 0 16.149 0 36C0 55.851 16.149 72 36 72C55.851 72 72 55.851 72 36C72 16.149 55.851 0 36 0ZM36 69C17.805 69 3 54.195 3 36C3 17.805 17.805 3 36 3C54.195 3 69 17.805 69 36C69 54.195 54.195 69 36 69Z" fill="#3495EA"/>
<path d="M43.983 28.584L35.496 19.947C34.914 19.356 33.966 19.347 33.375 19.929C32.784 20.508 32.775 21.459 33.357 22.05L41.853 30.696C42.414 31.26 43.197 32.121 43.995 33.015C45.501 34.716 45.501 37.278 43.995 38.976C43.197 39.876 42.414 40.737 41.844 41.307L33.357 49.944C32.775 50.535 32.784 51.486 33.375 52.065C33.669 52.353 34.047 52.497 34.428 52.497C34.815 52.497 35.205 52.347 35.496 52.05L43.974 43.422C44.568 42.831 45.396 41.922 46.242 40.968C48.75 38.136 48.75 33.864 46.242 31.029C45.396 30.078 44.568 29.169 43.986 28.587L43.983 28.584Z" fill="#3495EA"/>
</g>
<defs>
<clipPath id="clip0_16_17">
<rect width="72" height="72" fill="white"/>
</clipPath>
</defs>
</svg>
