<svg width="330" height="98" viewBox="0 0 330 98" fill="none" xmlns="http://www.w3.org/2000/svg">
<g clip-path="url(#clip0_42_96)">
<mask id="mask0_42_96" style="mask-type:luminance" maskUnits="userSpaceOnUse" x="0" y="0" width="330" height="98">
<path d="M330 0H0V98H330V0Z" fill="white"/>
</mask>
<g mask="url(#mask0_42_96)">
<path d="M83.8191 58.4255C83.805 53.1268 84.8676 47.8805 86.9423 43.0045C88.8854 38.2499 91.7512 33.9271 95.3743 30.2855C98.9975 26.6439 103.306 23.7557 108.052 21.7875C112.975 19.6829 118.279 18.6108 123.633 18.6375C131.389 18.5718 138.984 20.8534 145.419 25.1825C151.939 29.5184 157.05 35.6642 160.124 42.8645C162.232 47.7817 163.283 53.0868 163.209 58.436C163.26 65.3831 161.446 72.2167 157.957 78.225C154.514 84.2106 149.554 89.1841 143.577 92.645C137.532 96.2006 130.633 98.0468 123.619 97.986C116.612 98.0442 109.716 96.2396 103.637 92.757C97.5774 89.3089 92.5461 84.3096 89.0606 78.2732C85.575 72.2367 83.761 65.3811 83.8051 58.4115M106.459 58.5165C106.437 60.7326 106.873 62.9293 107.741 64.9687C108.609 67.0082 109.889 68.8462 111.501 70.3675C113.079 71.973 114.967 73.2417 117.05 74.0966C119.133 74.9514 121.368 75.3748 123.619 75.341C125.845 75.3754 128.054 74.9555 130.112 74.107C132.17 73.2584 134.033 71.9991 135.587 70.406C137.188 68.8699 138.456 67.0205 139.31 64.9731C140.165 62.9257 140.589 60.7243 140.555 58.506C140.587 56.2677 140.164 54.0463 139.309 51.977C138.455 49.9077 137.189 48.0338 135.587 46.4695C134.043 44.8574 132.184 43.5807 130.125 42.7189C128.066 41.8572 125.851 41.429 123.619 41.461C121.365 41.428 119.127 41.8552 117.043 42.7164C114.96 43.5776 113.074 44.8547 111.501 46.4695C109.88 48.023 108.596 49.8932 107.728 51.9638C106.861 54.0345 106.429 56.2613 106.459 58.506" fill="white"/>
<path d="M56.6837 0V22.75C56.626 22.7464 56.5696 22.7312 56.5178 22.7054C56.4661 22.6795 56.4201 22.6435 56.3826 22.5995C55.4489 22.1958 54.5327 21.8458 53.634 21.5495C52.7353 21.2532 51.8973 21.0082 51.12 20.8145C49.8736 20.419 48.7251 20.1145 47.6537 19.8555C46.5262 19.6315 45.3848 19.453 44.2223 19.3305C42.1379 19.2138 40.4514 19.1403 39.1629 19.11C35.3827 19.1432 31.627 19.7196 28.011 20.8215L27.7624 20.902C27.3598 21.0315 26.9571 21.1715 26.558 21.3115C17.8329 24.4589 10.4414 30.4846 5.60231 38.395C4.67254 39.9734 3.84566 41.6101 3.12684 43.295C1.05073 48.1473 -0.0132013 53.372 0.000123629 58.6495C0.000123629 58.8175 0.000123629 58.982 0.000123629 59.1465C0.108447 59.8234 0.156487 60.5086 0.14368 61.194C0.710402 70.4934 4.62137 79.2744 11.1555 85.918C12.7847 87.6431 14.5582 89.2262 16.4565 90.65C17.535 91.413 18.6484 92.148 19.8248 92.8165C23.7072 95.0383 27.9423 96.5773 32.3457 97.3665C33.3086 97.5205 34.282 97.643 35.2729 97.7165C35.574 97.7655 36.0502 97.818 36.7014 97.867C37.1356 97.902 37.4962 97.9335 37.7973 97.9685C38.4556 97.9965 39.1174 98.0175 39.7861 98.0175C40.637 98.0175 41.4773 97.9895 42.3106 97.9405C48.4449 97.6033 54.4094 95.8031 59.7054 92.6905C65.6897 89.2526 70.6564 84.2917 74.1004 78.3125C77.5445 72.3333 79.343 65.549 79.313 58.6495V0H56.6837ZM49.681 70.175C48.1269 71.7681 46.264 73.0275 44.2062 73.876C42.1484 74.7246 39.939 75.1444 37.7133 75.11C35.4618 75.1442 33.2268 74.721 31.1437 73.8661C29.0607 73.0112 27.173 71.7424 25.5951 70.1365C23.983 68.6159 22.7028 66.7785 21.8352 64.7396C20.9675 62.7008 20.531 60.5046 20.5531 58.289C20.5228 56.0443 20.9547 53.8174 21.8221 51.7467C22.6895 49.676 23.9738 47.8059 25.5951 46.2525C27.1678 44.6372 29.0537 43.3596 31.1374 42.4978C33.221 41.636 35.4586 41.2082 37.7133 41.2405C39.9456 41.2091 42.1604 41.638 44.2194 42.5003C46.2785 43.3627 48.1377 44.64 49.681 46.2525C51.283 47.8167 52.5497 49.6905 53.4038 51.7599C54.258 53.8292 54.6818 56.0507 54.6494 58.289C54.6828 60.5072 54.2589 62.7085 53.4041 64.7559C52.5493 66.8032 51.2819 68.6526 49.681 70.189" fill="white"/>
<path d="M192.277 86.5445C192.264 87.8849 192.528 89.2135 193.053 90.447C193.578 91.6805 194.352 92.7922 195.327 93.7125C196.282 94.683 197.423 95.4498 198.683 95.9666C199.943 96.4834 201.294 96.7393 202.655 96.719C204.002 96.7393 205.338 96.4851 206.583 95.9718C207.828 95.4585 208.956 94.6969 209.896 93.7335C210.864 92.8047 211.63 91.6868 212.146 90.4495C212.663 89.2121 212.92 87.8817 212.9 86.541C212.92 85.1867 212.664 83.8425 212.148 82.5903C211.631 81.3381 210.865 80.2042 209.896 79.2575C208.962 78.2835 207.836 77.5123 206.591 76.9921C205.345 76.4718 204.005 76.2136 202.655 76.2335C201.292 76.2139 199.939 76.4726 198.679 76.9937C197.419 77.5149 196.278 78.2876 195.327 79.2645C194.346 80.2044 193.569 81.3361 193.044 82.5891C192.52 83.8422 192.258 85.1862 192.277 86.5445Z" fill="#04B5B0"/>
<path d="M194.137 94.9165C193.001 93.8401 192.1 92.5416 191.489 91.1018C190.877 89.6621 190.569 88.112 190.583 86.548C190.598 83.3929 191.85 80.3695 194.069 78.1265C196.289 75.8834 199.3 74.5994 202.456 74.55C200.054 73.9298 197.824 72.7712 195.936 71.162C195.68 71.019 195.444 70.8411 195.236 70.6335C195.134 70.532 195.04 70.427 194.938 70.322L194.76 70.1365L194.469 69.8145L194.378 69.706C192.889 68.2027 191.713 66.4188 190.918 64.4578C190.124 62.4968 189.726 60.3976 189.749 58.282C189.777 54.2979 191.189 50.4472 193.744 47.3894C196.299 44.3316 199.838 42.2568 203.755 41.5205V19.25L202.673 19.3095C201.51 19.432 200.369 19.6105 199.242 19.8345C198.17 20.0865 197.022 20.4015 195.775 20.7935C194.963 20.9918 194.125 21.2368 193.261 21.5285C192.398 21.8202 191.481 22.1702 190.513 22.5785C190.475 22.6228 190.43 22.659 190.378 22.6849C190.326 22.7108 190.269 22.7258 190.212 22.729V0H167.589V58.6495C167.574 62.5858 168.153 66.502 169.305 70.266C169.603 71.225 169.939 72.1735 170.313 73.108C173.584 81.4221 179.557 88.3955 187.27 92.9075C190.217 94.6373 193.381 95.9662 196.679 96.859C195.747 96.3236 194.888 95.6707 194.123 94.9165" fill="white"/>
<path d="M242.855 36.4175C243.79 37.4692 244.498 38.703 244.934 40.0414C245.37 41.3798 245.524 42.7938 245.386 44.1945C245.386 50.9402 242.109 54.313 235.554 54.313H229.252C229.216 54.3177 229.18 54.3142 229.146 54.3026C229.113 54.291 229.082 54.2717 229.057 54.2463C229.032 54.2208 229.013 54.1899 229.002 54.1559C228.991 54.122 228.987 54.0859 228.993 54.0505L229.224 34.3315C229.219 34.2964 229.223 34.2607 229.234 34.2272C229.245 34.1937 229.264 34.1633 229.289 34.1382C229.314 34.1132 229.345 34.0943 229.378 34.0829C229.412 34.0715 229.448 34.0679 229.483 34.0725H235.558C238.201 33.8922 240.813 34.73 242.858 36.414M241.759 50.9285C242.552 50.0087 243.15 48.9369 243.515 47.7786C243.881 46.6202 244.006 45.3995 243.884 44.191C243.884 39.8347 242.553 37.1514 239.892 36.141C238.496 35.6686 237.028 35.4435 235.554 35.476H230.722L230.491 52.941H235.554C237.802 53.0991 240.024 52.3846 241.759 50.946" fill="white"/>
<path d="M249.654 54.096C249.585 54.0305 249.531 53.9518 249.493 53.8645C249.456 53.7773 249.437 53.6834 249.437 53.5885V34.7095C249.435 34.6101 249.453 34.5113 249.49 34.4192C249.527 34.327 249.583 34.2436 249.654 34.174C249.72 34.1053 249.798 34.0507 249.886 34.0134C249.973 33.9761 250.067 33.9569 250.162 33.957H250.218C250.313 33.9541 250.409 33.9707 250.497 34.0059C250.586 34.0411 250.667 34.0941 250.734 34.1617C250.802 34.2292 250.855 34.3099 250.89 34.3987C250.925 34.4875 250.942 34.5825 250.939 34.678V53.578C250.942 53.7668 250.87 53.9492 250.74 54.0855C250.672 54.1559 250.591 54.2116 250.502 54.2489C250.412 54.2863 250.315 54.3045 250.218 54.3025H250.162C250.067 54.3026 249.973 54.2834 249.886 54.2461C249.798 54.2088 249.72 54.1542 249.654 54.0855" fill="white"/>
<path d="M272.606 38.8045C272.161 38.0166 271.589 37.3071 270.914 36.7045C270.255 36.1563 269.493 35.7436 268.674 35.49C267.549 35.1998 266.39 35.0633 265.228 35.084C263.596 35.0399 261.981 35.4236 260.543 36.197C259.24 36.9323 258.191 38.0468 257.536 39.3925C256.85 40.9074 256.496 42.551 256.496 44.2137C256.496 45.8764 256.85 47.5201 257.536 49.035C258.197 50.3765 259.244 51.4895 260.543 52.2305C261.978 53.0126 263.595 53.4014 265.228 53.3575C267.458 53.5301 269.677 52.9212 271.506 51.6355C272.255 50.9099 272.846 50.0385 273.244 49.0753C273.642 48.1121 273.838 47.0775 273.821 46.0355H267.052C266.854 46.0406 266.662 45.9677 266.517 45.8325C266.448 45.771 266.393 45.6955 266.355 45.611C266.318 45.5265 266.299 45.4349 266.3 45.3425C266.298 45.2507 266.315 45.1594 266.35 45.0745C266.385 44.9895 266.437 44.9128 266.503 44.849C266.571 44.7811 266.653 44.728 266.742 44.6931C266.832 44.6582 266.928 44.6421 267.024 44.646H275.183C275.218 44.6408 275.254 44.6439 275.288 44.655C275.322 44.6661 275.353 44.685 275.378 44.7101C275.404 44.7352 275.423 44.7659 275.435 44.7997C275.446 44.8335 275.45 44.8695 275.445 44.905C275.549 46.256 275.371 47.6139 274.924 48.8928C274.476 50.1718 273.768 51.344 272.844 52.3355C270.985 53.6841 268.792 54.4993 266.504 54.693C264.215 54.8866 261.917 54.4515 259.857 53.4345C258.331 52.5844 257.085 51.3087 256.272 49.763C255.395 48.0462 254.957 46.1391 254.997 44.212C254.953 42.2836 255.38 40.3734 256.24 38.647C257.037 37.0852 258.285 35.7988 259.822 34.9545C261.486 34.076 263.347 33.6375 265.228 33.6805C267.045 33.6022 268.854 33.9549 270.508 34.7095C271.928 35.488 273.104 36.6436 273.908 38.0485C273.982 38.1711 274.022 38.3113 274.024 38.4545C274.022 38.5915 273.979 38.7249 273.902 38.8381C273.825 38.9513 273.716 39.0394 273.59 39.0915C273.481 39.1473 273.361 39.1773 273.239 39.179C273.111 39.1717 272.986 39.1339 272.875 39.0687C272.765 39.0036 272.671 38.913 272.602 38.8045" fill="white"/>
<path d="M279.419 54.096C279.351 54.0305 279.296 53.9518 279.259 53.8645C279.221 53.7773 279.202 53.6834 279.202 53.5885V34.7095C279.2 34.6101 279.218 34.5113 279.255 34.4192C279.292 34.327 279.348 34.2436 279.419 34.174C279.485 34.1053 279.564 34.0507 279.651 34.0134C279.738 33.9761 279.832 33.9569 279.927 33.957H279.983C280.079 33.9541 280.174 33.9707 280.262 34.0059C280.351 34.0411 280.432 34.0941 280.5 34.1617C280.567 34.2292 280.62 34.3099 280.655 34.3987C280.691 34.4875 280.707 34.5825 280.704 34.678V53.578C280.707 53.7668 280.635 53.9492 280.505 54.0855C280.438 54.1559 280.357 54.2116 280.267 54.2489C280.177 54.2863 280.08 54.3045 279.983 54.3025H279.941C279.846 54.3026 279.752 54.2834 279.665 54.2461C279.578 54.2088 279.499 54.1542 279.433 54.0855" fill="white"/>
<path d="M290.529 54.215C290.46 54.1495 290.406 54.0708 290.368 53.9835C290.331 53.8963 290.312 53.8024 290.312 53.7075L290.428 35.4655H285.368C285.272 35.4693 285.176 35.4533 285.086 35.4184C284.996 35.3835 284.915 35.3304 284.846 35.2625C284.717 35.1315 284.645 34.9548 284.645 34.7707C284.645 34.5867 284.717 34.41 284.846 34.279C284.915 34.2111 284.996 34.158 285.086 34.1231C285.176 34.0882 285.272 34.0721 285.368 34.076H296.678C296.876 34.0708 297.068 34.1437 297.213 34.279C297.283 34.3408 297.338 34.4169 297.376 34.5021C297.413 34.5873 297.432 34.6795 297.43 34.7725C297.432 34.8637 297.414 34.9542 297.379 35.0385C297.345 35.1228 297.293 35.199 297.227 35.2625C297.159 35.3299 297.078 35.3828 296.989 35.4177C296.9 35.4526 296.805 35.4689 296.709 35.4655H291.937L291.821 53.7075C291.824 53.8011 291.807 53.8943 291.773 53.9815C291.739 54.0686 291.687 54.1481 291.622 54.215C291.555 54.2865 291.474 54.3429 291.384 54.3803C291.294 54.4177 291.197 54.4354 291.1 54.432H291.044C290.949 54.4321 290.855 54.4129 290.768 54.3756C290.68 54.3383 290.602 54.2837 290.536 54.215" fill="white"/>
<path d="M313.859 53.9945L312.066 49.889H300.669L299.048 53.9945C298.99 54.128 298.891 54.2393 298.765 54.3118C298.638 54.3843 298.492 54.4142 298.348 54.397C298.15 54.4108 297.951 54.3759 297.77 54.2954C297.712 54.2583 297.665 54.2062 297.634 54.1446C297.603 54.083 297.59 54.0142 297.595 53.9455C297.612 53.697 297.672 53.4533 297.77 53.2244L305.203 34.5765C305.246 34.4575 305.327 34.3563 305.434 34.2895C305.545 34.2138 305.675 34.1735 305.809 34.174H307.084C307.217 34.1742 307.348 34.2144 307.458 34.2895C307.565 34.3567 307.646 34.4577 307.689 34.5765L315.123 53.2244C315.244 53.4578 315.313 53.7144 315.326 53.977C315.326 54.1695 315.266 54.292 315.154 54.327C314.927 54.3907 314.69 54.4155 314.454 54.4005C314.32 54.4011 314.189 54.3608 314.079 54.2849C313.971 54.2196 313.889 54.1179 313.848 53.998M306.471 35.2624L301.149 48.4749H311.534L306.471 35.2624Z" fill="white"/>
<path d="M329.275 54.313H319.702C319.667 54.3176 319.632 54.3141 319.598 54.3027C319.565 54.2913 319.534 54.2724 319.509 54.2473C319.484 54.2223 319.465 54.1919 319.454 54.1583C319.442 54.1248 319.439 54.0892 319.443 54.0541L319.272 34.713C319.272 34.6182 319.291 34.5242 319.328 34.437C319.366 34.3498 319.42 34.271 319.489 34.2056C319.594 34.0989 319.729 34.0261 319.876 33.9965C320.023 33.9669 320.175 33.9818 320.314 34.0394C320.452 34.0969 320.57 34.1944 320.653 34.3194C320.735 34.4444 320.779 34.5912 320.777 34.7411L320.949 52.941H329.279C329.375 52.9372 329.471 52.9532 329.561 52.9882C329.65 53.0231 329.732 53.0762 329.8 53.1441C329.93 53.2751 330.002 53.4517 330.002 53.6358C330.002 53.8199 329.93 53.9965 329.8 54.1276C329.732 54.1954 329.65 54.2485 329.561 54.2834C329.471 54.3184 329.375 54.3344 329.279 54.3306" fill="white"/>
<path d="M246.601 65.765C246.156 64.9771 245.585 64.2676 244.91 63.665C244.25 63.1168 243.489 62.7041 242.669 62.4505C241.544 62.1603 240.385 62.0237 239.224 62.0445C237.592 62.0003 235.976 62.3841 234.539 63.1575C233.235 63.8928 232.186 65.0073 231.531 66.353C230.846 67.8679 230.491 69.5115 230.491 71.1742C230.491 72.8369 230.846 74.4806 231.531 75.9955C232.192 77.337 233.24 78.4499 234.539 79.191C235.974 79.9731 237.59 80.3619 239.224 80.318C241.453 80.4906 243.673 79.8817 245.502 78.596C246.25 77.8704 246.842 76.999 247.24 76.0358C247.638 75.0726 247.834 74.038 247.816 72.996H241.048C240.85 73.0015 240.657 72.9286 240.512 72.793C240.443 72.7315 240.388 72.656 240.351 72.5715C240.313 72.487 240.294 72.3954 240.295 72.303C240.293 72.2111 240.31 72.1199 240.345 72.035C240.38 71.95 240.432 71.8732 240.498 71.8095C240.566 71.7416 240.648 71.6885 240.738 71.6536C240.828 71.6187 240.924 71.6026 241.02 71.6065H249.178C249.213 71.6013 249.25 71.6044 249.283 71.6155C249.317 71.6266 249.348 71.6455 249.374 71.6706C249.399 71.6957 249.419 71.7264 249.43 71.7602C249.442 71.794 249.445 71.83 249.441 71.8655C249.544 73.2167 249.366 74.5748 248.917 75.8537C248.469 77.1327 247.76 78.3048 246.836 79.296C244.977 80.6446 242.784 81.4598 240.495 81.6534C238.207 81.8471 235.908 81.412 233.849 80.395C232.323 79.5482 231.076 78.2763 230.26 76.734C229.383 75.0172 228.945 73.1101 228.986 71.183C228.941 69.2546 229.368 67.3444 230.229 65.618C231.028 64.0583 232.277 62.7744 233.814 61.9325C235.477 61.045 237.339 60.5979 239.224 60.634C241.04 60.5557 242.85 60.9083 244.504 61.663C245.923 62.4415 247.1 63.5971 247.904 65.002C247.977 65.1246 248.017 65.2648 248.019 65.408C248.017 65.545 247.975 65.6784 247.898 65.7916C247.82 65.9048 247.712 65.9929 247.585 66.045C247.477 66.1008 247.357 66.1308 247.235 66.1325C247.106 66.1252 246.982 66.0874 246.871 66.0222C246.76 65.9571 246.666 65.8665 246.598 65.758" fill="white"/>
<path d="M253.46 61.0505H259.882C261.162 61.0219 262.431 61.294 263.586 61.845C264.601 62.3123 265.457 63.0664 266.048 64.0143C266.639 64.9622 266.94 66.0624 266.912 67.179C266.985 68.7209 266.586 70.2483 265.767 71.5575C264.988 72.677 263.835 73.4814 262.515 73.8255L265.988 80.157C266.161 80.4203 266.28 80.7154 266.338 81.025C266.344 81.0706 266.336 81.117 266.316 81.1582C266.295 81.1993 266.263 81.2334 266.223 81.256C266.084 81.3061 265.936 81.3264 265.788 81.3155H265.438C265.307 81.3213 265.177 81.289 265.064 81.2225C264.951 81.156 264.86 81.0583 264.801 80.941L261.041 74.1475C260.829 74.1704 260.616 74.1797 260.403 74.1755H254.703V80.5945C254.705 80.7832 254.634 80.9653 254.504 81.102C254.436 81.1724 254.355 81.2281 254.266 81.2654C254.176 81.3028 254.079 81.3211 253.982 81.319H253.926C253.736 81.3146 253.555 81.2372 253.421 81.1029C253.286 80.9687 253.209 80.7878 253.205 80.598V61.313C253.2 61.2779 253.204 61.2422 253.215 61.2087C253.226 61.1752 253.245 61.1448 253.27 61.1197C253.295 61.0947 253.326 61.0757 253.359 61.0644C253.393 61.053 253.429 61.0494 253.464 61.054M264.02 71.449C264.533 70.8719 264.922 70.1958 265.162 69.4626C265.403 68.7293 265.491 67.9545 265.421 67.186C265.458 66.5328 265.349 65.8796 265.101 65.2741C264.853 64.6686 264.473 64.126 263.989 63.686C262.814 62.7759 261.347 62.3288 259.864 62.4295H254.686V72.779H259.864C261.366 72.8858 262.85 72.4038 264.003 71.435" fill="white"/>
<path d="M270.295 71.169C270.119 68.39 271.044 65.6535 272.868 63.5495C273.855 62.6035 275.028 61.8741 276.313 61.4082C277.598 60.9423 278.966 60.7501 280.33 60.844C282.164 60.7791 283.985 61.1775 285.624 62.0025C287.089 62.8321 288.284 64.0668 289.066 65.5585C289.972 67.2828 290.421 69.2111 290.368 71.1585C290.462 72.5465 290.278 73.9394 289.826 75.2551C289.374 76.5708 288.663 77.7829 287.735 78.82C285.656 80.5444 283.04 81.4883 280.338 81.4883C277.637 81.4883 275.021 80.5444 272.942 78.82C272.012 77.7864 271.299 76.5772 270.845 75.2638C270.39 73.9504 270.203 72.5558 270.295 71.169ZM288.894 71.1725C289.056 68.7618 288.285 66.3812 286.741 64.5225C284.937 63.0235 282.665 62.2029 280.319 62.2029C277.973 62.2029 275.702 63.0235 273.898 64.5225C272.37 66.3888 271.61 68.7664 271.772 71.1725C271.599 73.6008 272.389 75.9997 273.971 77.8505C275.758 79.3303 278.006 80.14 280.326 80.14C282.647 80.14 284.894 79.3303 286.681 77.8505C288.263 76.0101 289.058 73.6216 288.894 71.2005" fill="white"/>
<path d="M310.081 61.1695C310.149 61.2378 310.202 61.3194 310.237 61.4091C310.272 61.4988 310.288 61.5948 310.284 61.691V73.3145C310.434 75.5574 309.738 77.7752 308.334 79.5305C307.59 80.2849 306.691 80.8693 305.7 81.2433C304.709 81.6173 303.648 81.7721 302.591 81.697C301.491 81.7977 300.381 81.6687 299.333 81.318C298.285 80.9673 297.321 80.4027 296.502 79.66C295.096 77.8577 294.42 75.5924 294.608 73.3145V61.7085C294.606 61.6092 294.625 61.5106 294.662 61.4185C294.699 61.3265 294.755 61.243 294.825 61.173C294.891 61.1043 294.97 61.0497 295.057 61.0124C295.144 60.9751 295.238 60.9559 295.333 60.956H295.389C295.485 60.9526 295.58 60.9689 295.669 61.0039C295.759 61.0389 295.84 61.0918 295.908 61.1594C295.976 61.227 296.029 61.3078 296.064 61.3968C296.1 61.4859 296.117 61.5812 296.114 61.677V73.416C296.064 74.7656 296.281 76.1118 296.751 77.378C297.133 78.3338 297.854 79.116 298.775 79.576C299.975 80.109 301.283 80.3558 302.595 80.297C306.722 80.297 308.785 78.0033 308.785 73.416V61.6875C308.783 61.5903 308.801 61.4937 308.839 61.4039C308.876 61.3141 308.932 61.2331 309.002 61.166C309.138 61.0343 309.321 60.9614 309.51 60.963H309.569C309.665 60.9596 309.761 60.9759 309.85 61.0108C309.939 61.0457 310.02 61.0986 310.088 61.166" fill="white"/>
<path d="M315.144 81.102C315.075 81.0365 315.02 80.9577 314.983 80.8705C314.946 80.7833 314.926 80.6893 314.927 80.5945V61.3095C314.922 61.2744 314.925 61.2387 314.937 61.2052C314.948 61.1716 314.967 61.1412 314.992 61.1162C315.017 61.0911 315.048 61.0722 315.081 61.0608C315.115 61.0494 315.151 61.0459 315.186 61.0505H321.607C322.886 61.0222 324.154 61.2944 325.308 61.845C326.323 62.3122 327.179 63.0663 327.77 64.0142C328.361 64.9621 328.662 66.0623 328.634 67.179C328.705 68.1304 328.579 69.0862 328.263 69.9865C327.947 70.8869 327.449 71.7124 326.8 72.4115C325.368 73.6569 323.501 74.286 321.607 74.1615H316.429V80.5805C316.43 80.7697 316.357 80.952 316.226 81.088C316.159 81.1579 316.078 81.2133 315.989 81.2507C315.9 81.288 315.804 81.3065 315.707 81.305H315.648C315.553 81.3051 315.459 81.2859 315.372 81.2486C315.284 81.2113 315.206 81.1566 315.14 81.088M321.604 72.7755C323.105 72.8819 324.59 72.3999 325.742 71.4315C326.255 70.8543 326.644 70.1782 326.884 69.445C327.125 68.7118 327.213 67.937 327.143 67.1685C327.18 66.5153 327.071 65.8621 326.823 65.2565C326.575 64.651 326.195 64.1084 325.711 63.6685C324.538 62.7586 323.071 62.3114 321.59 62.412H316.411V72.7615L321.604 72.7755Z" fill="white"/>
</g>
</g>
<defs>
<clipPath id="clip0_42_96">
<rect width="330" height="98" fill="white"/>
</clipPath>
</defs>
</svg>
